<svg xmlns="http://www.w3.org/2000/svg" width="32" height="32" viewBox="0 0 32 32">
    <g fill="none" fill-rule="evenodd">
        <path fill="#00ACFF" fill-rule="nonzero" d="M25.292 6.707c-2.28-2.276-5.986-2.276-8.261 0l-6.62 6.622a3.627 3.627 0 0 0-1.07 2.584 3.647 3.647 0 0 0 3.652 3.647c.934 0 1.867-.353 2.58-1.065l3.097-3.097c.571-.577.856-1.32.856-2.065 0-.747-.285-1.493-.856-2.064l-5.162 5.161a.73.73 0 0 1-1.247-.517c0-.114.028-.331.213-.517l6.621-6.624a2.928 2.928 0 0 1 4.132 0 2.925 2.925 0 0 1 0 4.13l-6.624 6.624-3.701 3.701a2.925 2.925 0 0 1-4.13 0 2.922 2.922 0 0 1 0-4.13l.14-.14a5.207 5.207 0 0 1-1.025-3.102l-1.179 1.178a5.845 5.845 0 0 0 0 8.259A5.825 5.825 0 0 0 10.838 27c1.494 0 2.99-.57 4.128-1.708l10.326-10.326a5.845 5.845 0 0 0 0-8.259z"/>
        <path d="M0 0h32v32H0z"/>
    </g>
</svg>
