<svg xmlns="http://www.w3.org/2000/svg" width="72" height="72" viewBox="0 0 72 72">
    <g fill="none" fill-rule="evenodd">
        <g fill="#FFF" fill-rule="nonzero">
            <path d="M44.568 49.253c-11.003 0-20.546-1.851-26.525-5.253-2.058 1.001-8.538 4.241-10.253 6.293-.352.421-.763 1.506-.79 2.052-.019.426.465 1.633.465 1.633 14.551 6.169 22.687 3.819 30.821 2.21 8.654-1.704 16.501-7.26 16.501-7.26.065-.072.143-.145.213-.215-3.57.355-7.07.54-10.432.54z"/>
            <path d="M45.346 16.463l-.125.003C45.118 15.092 43.442 14 41.374 14c-2.136 0-3.867 1.162-3.867 2.598 0 .023.009.044.009.068-19.579 2.016-18.777 15.596-18.379 22.927.07 1.284-.022 2.547-.11 3.373 7.985 4.506 22.733 6.161 38.814 4.254 2.98-2.035 7.047-3.987 7.047-3.987s.252-7.532 0-10.025C63.563 20.11 52.262 17.093 45.346 16.463z"/>
        </g>
        <path d="M0 0h72v72H0z"/>
    </g>
</svg>
