<svg xmlns="http://www.w3.org/2000/svg" width="72" height="72" viewBox="0 0 72 72">
    <g fill="none" fill-rule="evenodd">
        <path fill="#FFF" fill-rule="nonzero" d="M66.99 44.254l-.567-4.563-.313-2.515c-.02-.158-.031-.32-.063-.476a1.16 1.16 0 0 0-1.15-.919c-.038 0-.06.016-.06-.02v-6.177c0-.211.01-.43-.021-.64a1.671 1.671 0 0 0-1.118-1.312l-.164-.055L35.93 18.29c-.16-.054-.32-.113-.481-.161-.466-.14-.883-.029-1.315.117L6.502 27.542c-.403.135-.777.289-1.053.64-.485.615-.46 1.51.058 2.099.234.266.536.416.865.527l4.982 1.675 2.463.829c.173.058.54.19.54.19l.003 3.752V49.685c0 .592.32 1.151.842 1.445.41.232.929.306 1.381.423a73.908 73.908 0 0 0 14.124 2.254c4.179.253 8.378.13 12.535-.357a74.4 74.4 0 0 0 9.419-1.722c.522-.13 1.043-.266 1.562-.407.387-.104.726-.276.981-.59.366-.45.369-.955.369-1.49v-1.785V33.495l5.251-1.767.673-.226v3.647l.002.557c0 .057.012.075-.038.075-.607 0-1.116.424-1.191 1.026l-.071.571-.336 2.694-.372 2.99-.118.944c-.036.29-.067.565.058.847.218.495.697.69 1.21.69h5.131c.709 0 1.31-.562 1.219-1.29z"/>
        <path d="M0 0h72v72H0z"/>
    </g>
</svg>
