<svg xmlns="http://www.w3.org/2000/svg" width="16" height="16" viewBox="0 0 16 16">
    <path fill="#CCC" fill-rule="nonzero" d="M15.2.8h-2.4V0H3.2v.8H.8c-.48 0-.8.32-.8.8v1.92c0 1.84 1.36 3.36 3.2 3.6v.08c0 2.32 1.6 4.24 3.76 4.72L6.4 13.6H4.56c-.32 0-.64.24-.72.56L3.2 16h9.6l-.64-1.84a.768.768 0 0 0-.72-.56H9.6l-.56-1.68c2.16-.48 3.76-2.4 3.76-4.72v-.08c1.84-.24 3.2-1.76 3.2-3.6V1.6c0-.48-.32-.8-.8-.8zm-12 4.72c-.88-.24-1.6-1.04-1.6-2V2.4h1.6v3.12zM9.6 8L8 7.12 6.4 8l.4-1.6-1.2-1.6h1.68L8 3.2l.72 1.6h1.68L9.2 6.4 9.6 8zm4.8-4.48c0 .96-.72 1.84-1.6 2V2.4h1.6v1.12z"/>
</svg>
