<svg xmlns="http://www.w3.org/2000/svg" width="225" height="247" viewBox="0 0 225 247">
    <g fill="none" fill-rule="evenodd">
        <rect width="225" height="225" fill="#F6F6F6" rx="18"/>
        <path fill="#47B8EB" d="M111.827 77.906a8.478 8.478 0 0 1-8.553-8.4c-.037-4.678 3.726-8.504 8.41-8.543 4.682-.04 8.513 3.72 8.553 8.4.04 4.676-3.726 8.503-8.41 8.543m17.25-18.987c-4.58-4.503-10.62-6.94-17.023-6.883-6.407.058-12.42 2.614-16.917 7.204-4.48 4.572-6.914 10.595-6.858 16.973.053 6.506 2.72 12.385 6.984 16.671-.015-1.81-.035-3.897-.057-6.903-.02-2.358 1.816-5.119 4.166-5.861a43.696 43.696 0 0 1 24.942-.21c2.37.701 4.248 3.423 4.272 5.784.03 3.488.05 5.746.066 7.757.25-.237.516-.453.757-.7 4.478-4.568 6.913-10.589 6.854-16.958-.062-6.386-2.613-12.385-7.187-16.874"/>
        <path fill="#D5E962" d="M129.41 92.75c-4.512 4.6-10.52 7.156-16.937 7.212-13.23.121-24.087-10.533-24.194-23.75-.056-6.378 2.38-12.4 6.859-16.973 4.498-4.59 10.509-7.146 16.916-7.203 6.403-.058 12.445 2.38 17.023 6.882 4.574 4.49 7.124 10.489 7.187 16.874.058 6.37-2.376 12.39-6.854 16.958"/>
        <path stroke="#484F59" stroke-width="3" d="M129.41 92.75c-4.512 4.6-10.52 7.156-16.937 7.212-13.23.121-24.087-10.533-24.194-23.75-.056-6.378 2.38-12.4 6.859-16.973 4.498-4.59 10.509-7.146 16.916-7.203 6.403-.058 12.445 2.38 17.023 6.882 4.574 4.49 7.124 10.489 7.187 16.874.058 6.37-2.376 12.39-6.854 16.958z"/>
        <path fill="#CDD5D7" d="M124.771 80.492a43.688 43.688 0 0 0-24.942.211c-2.35.741-4.186 3.502-4.166 5.86.022 3.006.042 5.093.057 6.904a24.096 24.096 0 0 0 7.713 5.208l-.088-10.734.088 10.734a23.815 23.815 0 0 0 9.497 1.87 23.86 23.86 0 0 0 8.55-1.67l-.094-11.089.094 11.089a23.853 23.853 0 0 0 7.629-4.84c-.015-2.013-.036-4.27-.066-7.759-.023-2.36-1.901-5.082-4.272-5.784"/>
        <path stroke="#484F59" stroke-width="3" d="M124.771 80.492a43.688 43.688 0 0 0-24.942.211c-2.35.741-4.186 3.502-4.166 5.86.022 3.006.042 5.093.057 6.904a24.096 24.096 0 0 0 7.713 5.208l-.088-10.734.088 10.734a23.815 23.815 0 0 0 9.497 1.87 23.86 23.86 0 0 0 8.55-1.67l-.094-11.089.094 11.089a23.853 23.853 0 0 0 7.629-4.84c-.015-2.013-.036-4.27-.066-7.759-.023-2.36-1.901-5.082-4.272-5.784z"/>
        <path fill="#CDD5D7" d="M111.458 61.257c-4.684.04-8.447 3.865-8.41 8.544A8.478 8.478 0 0 0 111.6 78.2c4.685-.04 8.45-3.867 8.41-8.543-.039-4.679-3.87-8.44-8.553-8.4"/>
        <path stroke="#484F59" stroke-width="3" d="M111.458 61.257c-4.684.04-8.447 3.865-8.41 8.544A8.478 8.478 0 0 0 111.6 78.2c4.685-.04 8.45-3.867 8.41-8.543-.039-4.679-3.87-8.44-8.553-8.4zM113.201 36.359v11.245"/>
        <path stroke="#484F59" stroke-linecap="round" stroke-linejoin="round" stroke-width="3" d="M113.201 36.359v11.245M77.201 56.646l9.747 5.62M77.201 98.234l9.747-5.624"/>
        <path stroke="#484F59" stroke-width="3" d="M113.201 118.61v-11.245"/>
        <path stroke="#484F59" stroke-linecap="round" stroke-linejoin="round" stroke-width="3" d="M148.799 98.234l-9.752-5.624M148.794 56.646l-9.747 5.624"/>
        <path fill="#FFF" d="M139.027 114.672a3.819 3.819 0 0 0-3.819-3.816c-2.109 0-3.818.755-3.818 2.861v-.952a3.817 3.817 0 0 0-3.818-3.816 3.818 3.818 0 0 0-3.82 3.816v-1.909a3.815 3.815 0 0 0-3.82-3.814 3.815 3.815 0 0 0-3.816 3.814v2.145c-.012.003-.035-21.977-.035-21.977a3.95 3.95 0 1 0-7.902 0l-.02 38.56-.079-1.88v-7.883a5.827 5.827 0 0 0-5.836-5.826h-1.94c-.057 0-.057 2.435 0 7.305.006.002.006 3.23 0 9.686l11.056 13.132v-.277a10.296 10.296 0 0 0 4.631 2.52v28.834h19.097v-30.577c2.506-1.875 4.13-4.848 4.13-8.208v-17.804l-.19-3.934z"/>
        <path stroke="#484F59" stroke-width="3" d="M139.027 113.21c0-1.995-1.711-3.613-3.819-3.613-2.109 0-3.818.715-3.818 2.71v-.902c0-1.997-1.71-3.614-3.818-3.614-2.11 0-3.82 1.617-3.82 3.614v-1.808c0-1.996-1.71-3.612-3.82-3.612-2.108 0-3.816 1.616-3.816 3.612v2.031c-.012.003-.035-20.813-.035-20.813 0-2.06-1.771-3.738-3.952-3.738-2.182 0-3.95 1.679-3.95 3.738l-.02 36.518-.079-1.78v-7.465c0-3.05-2.608-5.518-5.836-5.518h-1.94c-.057 0-.057 2.306 0 6.918.006.002.006 3.06 0 9.173l11.056 12.437v-.263a10.478 10.478 0 0 0 4.631 2.388V160h19.097v-18.428c2.506-1.776 4.13-4.592 4.13-7.774v-16.861l-.19-3.726z"/>
        <path fill="#CDD5D7" d="M143.063 164v-18.827h-34.477V164"/>
        <path stroke="#484F59" stroke-width="3" d="M143.063 175v-29.827h-34.477V175"/>
        <path fill="#01CBD6" d="M146.533 180v-27.45h-38.87V180"/>
        <path fill="#01DEE9" d="M146.151 180v-27.45h-19.104V180"/>
        <path stroke="#484F59" stroke-width="3" d="M146.533 180v-27.45h-38.87V180"/>
        <g transform="translate(91 201)">
            <circle cx="22" cy="22" r="22" fill="#FFF" stroke="#484F59" stroke-width="3"/>
            <text fill="#484F59" font-family="OpenSans-Semibold, Open Sans" font-size="22" font-weight="500">
                <tspan x="15.221" y="29">2</tspan>
            </text>
        </g>
    </g>
</svg>
