<svg xmlns="http://www.w3.org/2000/svg" width="225" height="247" viewBox="0 0 225 247">
    <g fill="none" fill-rule="evenodd">
        <rect width="225" height="225" fill="#F6F6F6" rx="18"/>
        <g stroke="#484F59" stroke-width="3">
            <path fill="#01DEE9" fill-rule="nonzero" d="M97.7 128h-.317l-10.215 2.693L76.582 128h-.318c-1.808.02-3.264 1.548-3.264 3.425v20.15c0 1.891 1.477 3.425 3.3 3.425h21.4c1.823 0 3.3-1.534 3.3-3.425v-20.15c0-1.891-1.477-3.425-3.3-3.425z"/>
            <path fill="#FFF" d="M77 56c-10.48 0-19 6.85-19 15.263 0 8.414 8.52 15.263 19 15.263a23.628 23.628 0 0 0 3.507-.257l6.914 6.335c.275.255.636.396 1.01.396a1.468 1.468 0 0 0 1.487-1.485v-9.067A14.053 14.053 0 0 0 96 71.263C96 62.85 87.48 56 77 56z"/>
            <path fill="#CDD5D7" d="M87 106c-5.519.01-9.99 4.481-10 10 0 5.523 4.477 10 10 10s10-4.477 10-10-4.477-10-10-10z"/>
            <g>
                <path fill="#D5E962" fill-rule="nonzero" d="M114.794 137.776h.365l11.748 3.014 12.174-3.014h.365c2.08.022 3.754 1.732 3.754 3.834v22.556c0 2.117-1.699 3.834-3.794 3.834h-24.612c-2.095 0-3.794-1.717-3.794-3.834V141.61c0-2.118 1.699-3.834 3.794-3.834z"/>
                <path fill="#FFF" d="M143.106 54C156.286 54 167 62.602 167 73.169c0 10.566-10.714 19.168-23.894 19.168a29.752 29.752 0 0 1-4.41-.323l-8.695 7.956c-.346.32-.8.497-1.27.497a1.849 1.849 0 0 1-.748-.149 1.864 1.864 0 0 1-1.121-1.715V87.216a17.643 17.643 0 0 1-7.65-14.047c0-10.567 10.714-19.169 23.894-19.169z"/>
                <path fill="#CDD5D7" d="M127.1 112.13c6.347.012 11.489 5.131 11.5 11.45 0 6.322-5.149 11.448-11.5 11.448s-11.5-5.126-11.5-11.449c0-6.322 5.149-11.448 11.5-11.448z"/>
            </g>
        </g>
        <g transform="translate(91 201)">
            <circle cx="22" cy="22" r="22" fill="#FFF" stroke="#484F59" stroke-width="3"/>
            <text fill="#484F59" font-family="OpenSans-Semibold, Open Sans" font-size="22" font-weight="500">
                <tspan x="15.221" y="29">4</tspan>
            </text>
        </g>
    </g>
</svg>
