<svg xmlns="http://www.w3.org/2000/svg" xmlns:xlink="http://www.w3.org/1999/xlink" width="225" height="247" viewBox="0 0 225 247">
    <defs>
        <path id="a" d="M22 0h63.645v69.152H22z"/>
    </defs>
    <g fill="none" fill-rule="evenodd">
        <rect width="225" height="225" fill="#F6F6F6" rx="18"/>
        <g transform="translate(70 41)">
            <path fill="#01DEE9" stroke="#484F59" stroke-width="3" d="M30.477 89.955c-4.121 0-7.477-3.354-7.477-7.474C23 78.355 26.356 75 30.477 75s7.477 3.355 7.477 7.481c0 4.12-3.356 7.474-7.477 7.474M37.943 134.641H24.297l-.075-16.988c-1.218-.111-3.526-.551-4.107-2.303l-.039-.225L20 98.147l.25-.219C20.433 97.769 24.821 94 30.931 94c3.604 0 7.033 1.319 10.199 3.915l.267.219-.081 16.911-.061.139c-.041.092-.958 2.097-3.312 2.394v17.063zM51.551 93.104A5.558 5.558 0 0 1 46 87.553 5.557 5.557 0 0 1 51.551 82c3.06 0 5.549 2.49 5.549 5.553a5.557 5.557 0 0 1-5.549 5.551M57.45 126.46H46v-8.098c0-1.094.581-1.649.893-1.95a.18.18 0 0 1 .021-.019l.429-18.302.441-.178c1.478-.607 2.979-.913 4.457-.913 2.619 0 5.112.956 7.411 2.842l.268.22-.058 12.228-.062.142c-.03.067-.687 1.5-2.35 1.8v12.228zM7.549 93.104A5.557 5.557 0 0 1 2 87.553 5.558 5.558 0 0 1 7.549 82a5.559 5.559 0 0 1 5.552 5.553c0 3.06-2.49 5.551-5.552 5.551M15.5 126.452H2.47v-12.228c-1.664-.3-2.32-1.733-2.35-1.8l-.062-.142L0 100.054l.268-.22c3.595-2.95 7.771-3.605 11.871-1.929l.44.178.429 18.302c.007.006.015.011.018.02.314.3 2.474 2.501 2.474 3.595v6.452z"/>
            <path fill="#D5E962" d="M23 47.974c0 2.102 1.585 3.803 3.547 3.803h6.876v14.268l16.844-14.268h30.221c1.966 0 3.554-1.701 3.554-3.803V4.806C84.042 2.702 82.454 1 80.488 1H26.547C24.585 1 23 2.702 23 4.806v43.168z"/>
            <mask id="b" fill="#fff">
                <use xlink:href="#a"/>
            </mask>
            <path fill="#484F59" d="M23.302 48.274H22c0 1.381.522 2.648 1.387 3.576a4.729 4.729 0 0 0 3.462 1.528h5.574v15.774l18.624-15.774H80.79a4.74 4.74 0 0 0 3.463-1.525 5.23 5.23 0 0 0 1.393-3.579V5.106c0-1.38-.523-2.65-1.391-3.579A4.73 4.73 0 0 0 80.79 0H26.849a4.722 4.722 0 0 0-3.462 1.528A5.24 5.24 0 0 0 22 5.106v43.168H24.602V5.106c0-.724.271-1.357.688-1.806.422-.447.959-.697 1.559-.699H80.79c.602.002 1.142.253 1.564.701.418.448.69 1.081.69 1.804v43.168a2.63 2.63 0 0 1-.69 1.802c-.422.447-.962.698-1.564.699H50.092L35.025 63.54V50.775h-8.176c-.6-.001-1.137-.252-1.559-.699a2.63 2.63 0 0 1-.688-1.802h-1.3z" mask="url(#b)"/>
            <path fill="#FFF" d="M63.304 26.668v-2.987c0-.927-.753-1.681-1.681-1.681H37.679c-.925 0-1.679.754-1.679 1.681v15.293c0 .934.754 1.68 1.679 1.68h23.944c.928 0 1.681-.746 1.681-1.68v-2.993l9.041 4.494V22.172l-9.041 4.496z" mask="url(#b)"/>
            <path fill="#484F59" d="M62.604 26.595h1.3v-2.987a2.983 2.983 0 0 0-2.981-2.982H36.979A2.982 2.982 0 0 0 34 23.608v15.293a2.976 2.976 0 0 0 2.979 2.98h23.944a2.977 2.977 0 0 0 2.981-2.98v-.893l9.043 4.492V20l-10.923 5.43.58 1.165h1.3-1.3l.579 1.164 7.162-3.56V38.303l-9.043-4.492v5.09a.374.374 0 0 1-.379.379H36.979a.375.375 0 0 1-.378-.379V23.608c0-.206.175-.379.378-.379h23.944c.207 0 .379.171.379.379v5.086l1.881-.935-.579-1.164z" mask="url(#b)"/>
            <path fill="#FFF" d="M42.741 21.484a5.742 5.742 0 0 0 0-11.484 5.743 5.743 0 0 0 0 11.484" mask="url(#b)"/>
            <path fill="#484F59" d="M42.043 21.784v1.3a7.043 7.043 0 1 0-.003-14.085 7.043 7.043 0 0 0 .003 14.085V20.482a4.416 4.416 0 0 1-3.139-1.301 4.422 4.422 0 0 1-1.303-3.139 4.428 4.428 0 0 1 1.303-3.14 4.424 4.424 0 0 1 3.139-1.301 4.415 4.415 0 0 1 3.137 1.301 4.428 4.428 0 0 1 1.303 3.14 4.422 4.422 0 0 1-1.303 3.139 4.411 4.411 0 0 1-3.137 1.301v1.302z" mask="url(#b)"/>
            <path fill="#FFF" d="M54.747 21.484a5.736 5.736 0 0 0 5.736-5.742A5.736 5.736 0 0 0 54.747 10 5.744 5.744 0 0 0 49 15.742a5.744 5.744 0 0 0 5.747 5.742" mask="url(#b)"/>
            <path fill="#484F59" d="M55.048 21.784v1.3a7.015 7.015 0 0 0 4.979-2.062 7.043 7.043 0 0 0 2.058-4.98A7.039 7.039 0 0 0 55.048 9 7.044 7.044 0 0 0 48 16.042a7.044 7.044 0 0 0 7.048 7.042V20.482a4.434 4.434 0 0 1-3.146-1.301 4.42 4.42 0 0 1-1.301-3.139 4.438 4.438 0 0 1 4.447-4.441 4.415 4.415 0 0 1 3.137 1.3 4.429 4.429 0 0 1 1.298 3.141 4.423 4.423 0 0 1-1.298 3.14 4.41 4.41 0 0 1-3.137 1.3v1.302z" mask="url(#b)"/>
        </g>
        <g transform="translate(91 201)">
            <circle cx="22" cy="22" r="22" fill="#FFF" stroke="#484F59" stroke-width="3"/>
            <text fill="#484F59" font-family="OpenSans-Semibold, Open Sans" font-size="22" font-weight="500">
                <tspan x="15.221" y="29">3</tspan>
            </text>
        </g>
    </g>
</svg>
