<svg xmlns="http://www.w3.org/2000/svg" width="91" height="104" viewBox="0 0 91 104">
    <g fill="none" fill-rule="evenodd" stroke="#484F59">
        <path fill="#01DEE9" stroke-width="3" d="M12.5 57C8.366 57 5 53.636 5 49.504 5 45.365 8.366 42 12.5 42s7.5 3.365 7.5 7.504C20 53.636 16.634 57 12.5 57"/>
        <path fill="#D5E962" stroke-width="3" d="M78.5 57c-4.134 0-7.5-3.364-7.5-7.496C71 45.365 74.366 42 78.5 42s7.5 3.365 7.5 7.504C86 53.636 82.634 57 78.5 57"/>
        <path fill="#01DEE9" stroke-width="3" d="M19.61 102H6.217l-.073-17.138c-1.196-.112-3.46-.556-4.031-2.323l-.038-.227L2 65.184l.245-.221C2.425 64.803 6.732 61 12.728 61c3.537 0 6.903 1.33 10.01 3.95l.262.22-.08 17.06-.06.141c-.04.093-.94 2.116-3.25 2.415V102z"/>
        <path fill="#D5E962" stroke-width="3" d="M85.61 102H72.217l-.073-17.138c-1.196-.112-3.46-.556-4.031-2.323l-.038-.227L68 65.184l.245-.221c.18-.16 4.487-3.963 10.483-3.963 3.537 0 6.903 1.33 10.01 3.95l.262.22-.08 17.06-.06.141c-.04.093-.94 2.116-3.25 2.415V102z"/>
        <g fill="#FFDC69" stroke-width="2">
            <path d="M60.945 2.008a766.72 766.72 0 0 1-.038 3.763l-.012.987H28.053l-.013-.987A803.531 803.531 0 0 1 28 2.008L27.992 1h32.96l-.007 1.008z"/>
            <path d="M33.07 30.797c-.155-.014-.31-.03-.466-.05l.018.03c.15.01.299.016.448.02zM26.6 7.669c.208.064.413.132.614.203l.13-.371c-.26-.068-.517-.13-.771-.184l.028.352zm7.477 21.635v.001l.016.027c.081.142.165.284.252.43l.08.131c.087.144.166.272.243.392l.053.082.006.008.034.053a19.912 19.912 0 0 0 .537.786l.005.008.03.042 1.121 1.554-1.915.031c-.074.002-.15.002-.227.002-2.64 0-5.35-.631-7.881-2.155-5.682-3.419-9.845-9.502-9.736-18.813.052-4.447 2.199-6.818 6.278-6.818 1.664 0 3.37.38 4.906.92l.616.218.049.652c.042.565.088 1.128.14 1.687l.135 1.466-1.413-.415c-1.271-.374-2.465-.587-3.496-.587-1.358 0-2.314.363-2.912 1.048-.66.759-.91 1.964-.68 3.638.439 3.195 1.351 6.004 2.706 8.353 1.28 2.219 2.922 3.977 4.882 5.235 1.594 1.024 3.432 1.482 5.323 1.52l.566.011.282.493-.002-.003z"/>
            <path stroke-linejoin="round" d="M56.307 54v6H32v-6h24.307zM37 50h15.267v4H37v-4z"/>
            <path d="M41 49v-6h6.106v6H41z"/>
            <path d="M49.183 41.096c0 1.156-.939 2.096-2.095 2.096h-5.992a2.097 2.097 0 0 1 0-4.192h5.992c1.156 0 2.095.94 2.095 2.096zM52.67 31.691l-.028.036c-.084.108-.168.213-.252.317l-.062.076c-.093.113-.186.223-.28.33l-.013.016c-.944 1.077-1.975 1.93-3.063 2.536a5.034 5.034 0 0 0-2.505 3.578H42.22a5.034 5.034 0 0 0-2.505-3.578c-1.05-.585-2-1.366-2.857-2.3l-.207-.236c-.841-.96-1.635-2.123-2.357-3.456l-.222-.41C30.433 21.568 29.332 11.4 29 6h30.694c-.014.235-.03.478-.047.73l-.003.035c-.018.273-.038.547-.06.82l-.001.025c-.068.868-.148 1.74-.24 2.601l-.055.521c-.615 5.515-1.914 12.54-4.654 17.832l-.241.446a20.25 20.25 0 0 1-1.723 2.681z"/>
            <path d="M56.396 30.748c-.156.019-.313.035-.47.05.151-.005.302-.012.452-.02l.018-.03zm-1.1 1.676a.631.631 0 0 0 .007-.01l-.008.012.001-.002zm7.131-25.107c-.254.054-.512.116-.772.184l.131.371c.201-.07.406-.139.613-.202.01-.118.02-.236.028-.353zM53.66 31.276l.012-.018c.104-.144.207-.29.31-.44l.013-.02.023-.034c.083-.122.167-.25.255-.386l.063-.098c.104-.163.193-.305.276-.443l.018-.03v-.002l.023-.037c.074-.124.147-.25.219-.374l.032-.056.005-.008.016-.026.281-.492.567-.012c1.89-.038 3.729-.496 5.323-1.52 1.959-1.258 3.6-3.016 4.88-5.235 1.356-2.349 2.269-5.158 2.708-8.353.23-1.674-.02-2.88-.681-3.638-.598-.685-1.554-1.048-2.912-1.048-1.03 0-2.226.214-3.496.587l-1.413.415.135-1.466c.052-.555.097-1.103.137-1.645l.002-.017v-.008l.002-.02.05-.65.615-.216c1.534-.54 3.242-.92 4.905-.92 4.08 0 6.226 2.37 6.278 6.817.11 9.31-4.054 15.394-9.735 18.813-2.532 1.524-5.242 2.155-7.882 2.155-.077 0-.153 0-.227-.002l-1.904-.03 1.107-1.55-.006.008z"/>
        </g>
    </g>
</svg>
