<svg xmlns="http://www.w3.org/2000/svg" width="594" height="360" viewBox="0 0 594 360">
    <g fill="#01DEE9" fill-rule="evenodd">
        <path d="M.353 204.393l5.334 7.923 5.335-7.923z"/>
        <path fill-rule="nonzero" d="M268 0h2v119.387c0 7.18-5.82 13-13 13H18c-6.075 0-11 4.925-11 11V210H5v-66.613c0-7.18 5.82-13 13-13h239c6.075 0 11-4.925 11-11V0z"/>
        <path d="M583.353 204.393l5.334 7.923 5.335-7.923z"/>
        <path fill-rule="nonzero" d="M327 0h-2v119.387c0 7.18 5.82 13 13 13h239c6.075 0 11 4.925 11 11V210h2v-66.613c0-7.18-5.82-13-13-13H338c-6.075 0-11-4.925-11-11V0zM5 271.508h2V347c0 6.075 4.925 11 11 11h559c6.075 0 11-4.925 11-11v-76h2v76c0 7.18-5.82 13-13 13H18c-7.18 0-13-5.82-13-13v-75.492z"/>
        <path d="M.294 272.923L5.63 265l5.334 7.923zM583.294 272.923L588.63 265l5.334 7.923z"/>
    </g>
</svg>
