<svg xmlns="http://www.w3.org/2000/svg" xmlns:xlink="http://www.w3.org/1999/xlink" width="310" height="156" viewBox="0 0 310 156">
    <defs>
        <path id="a" d="M9.688 0C4.338 0 0 8.007 0 17.886v120.228C0 147.994 4.338 156 9.688 156h290.625c5.35 0 9.687-8.007 9.687-17.886V17.886C310 8.006 305.663 0 300.312 0H9.688z"/>
    </defs>
    <g fill="none" fill-rule="evenodd">
        <mask id="b" fill="#fff">
            <use xlink:href="#a"/>
        </mask>
        <use fill="#F6F6F6" xlink:href="#a"/>
        <path fill="#484F59" d="M125.857 88.438l-3.983 3.823a3.662 3.662 0 0 0-1.096 2.617 3.667 3.667 0 0 0 1.093 2.627c.016.015.032.03.045.049a3.78 3.78 0 0 0 5.257-.037l3.973-3.813a35.882 35.882 0 0 1-2.681-2.386c-.01-.012-.024-.02-.036-.033a36.534 36.534 0 0 1-2.572-2.847m-5.022 10.112c-.02 0-.036-.038-.052-.056a5.103 5.103 0 0 1-1.482-3.62 5.127 5.127 0 0 1 1.538-3.657l4.579-4.394a.744.744 0 0 1 1.097.08 34.928 34.928 0 0 0 2.962 3.349c.98.97 2.07 1.92 3.239 2.823a.721.721 0 0 1 .283.537.72.72 0 0 1-.224.565l-4.568 4.385c-2.031 2.004-5.342 2.001-7.372-.012" mask="url(#b)"/>
        <path fill="#66CDE1" stroke="#484F59" stroke-width="3" d="M127.9 97.971a8.285 8.285 0 0 1-2.325 7.147L98.053 132.6c-3.209 3.2-8.416 3.2-11.62.005a.702.702 0 0 0-.062-.06c-3.18-3.235-3.16-8.463.053-11.672l27.52-27.477a8.272 8.272 0 0 1 6.915-2.323 5.202 5.202 0 0 0-.475 2.17 5.196 5.196 0 0 0 .944 3.006c.02.03.04.054.059.082a5.222 5.222 0 0 0 .48.576.926.926 0 0 0 .051.058c.179.18.37.337.568.486.04.033.085.063.129.096.196.137.398.263.608.37.036.02.073.034.109.05.183.09.372.168.564.233.053.02.105.039.157.056.21.066.427.118.642.155.067.014.133.022.199.03.186.028.373.041.558.047.051.002.097.008.146.009.222.002.441-.02.659-.046a5.237 5.237 0 0 0 .865-.179c.028-.004.052-.016.077-.024.22-.069.431-.155.64-.254.02-.008.041-.013.06-.023" mask="url(#b)"/>
        <path fill="#FFF" fill-rule="nonzero" stroke="#484F59" stroke-width="3" d="M153.611 91.867c6.985.014 13.55-2.698 18.525-7.654 4.969-4.953 7.702-11.508 7.718-18.501.011-7.002-2.712-13.577-7.686-18.553-4.944-4.945-11.49-7.667-18.467-7.685-6.991-.012-13.554 2.696-18.52 7.645-4.966 4.95-7.697 11.505-7.707 18.496-.015 7.007 2.706 13.588 7.686 18.578 4.94 4.94 11.48 7.658 18.451 7.674zm-35.61-26.269c.013-9.503 3.747-18.465 10.493-25.188 6.743-6.723 15.718-10.427 25.227-10.41 9.487.024 18.432 3.745 25.147 10.461 6.751 6.754 10.475 15.744 10.46 25.269-.022 9.509-3.758 18.468-10.505 25.193-6.753 6.73-15.73 10.437-25.232 10.418-9.48-.022-18.42-3.74-25.132-10.45C121.7 84.117 117.98 75.121 118 65.597z" mask="url(#b)"/>
        <path stroke="#00BFFE" stroke-linecap="round" stroke-linejoin="round" stroke-width="1.417" d="M144 50.667a3.338 3.338 0 0 0-3.334 3.334A3.336 3.336 0 0 0 144 57.333 3.337 3.337 0 0 0 147.334 54 3.339 3.339 0 0 0 144 50.667zM144 58c-2.207 0-4-1.794-4-4 0-2.204 1.793-4 4-4s4 1.796 4 4c0 2.206-1.793 4-4 4zM141.055 81.307h6.079l.469-17.131 5.717.95v-2.184l-4.046-1.898c-1.825-.899-3.58-1.352-5.217-1.352-3.164 0-4.983 1.7-5.377 2.112l.041 9.187c.259.613 1.52.754 1.954.755l.337.001.043 9.56zm6.738.693h-7.414l-.042-9.577c-.645-.05-1.956-.277-2.276-1.258l-.018-.109L138 61.54l.081-.097c.084-.1 2.084-2.443 5.976-2.443 1.74 0 3.593.477 5.506 1.418l4.437 2.08v3.44l-5.74-.954L147.793 82zM164.002 50.667a3.338 3.338 0 0 0-3.335 3.334 3.336 3.336 0 0 0 3.335 3.332A3.337 3.337 0 0 0 167.335 54a3.338 3.338 0 0 0-3.333-3.334zm0 7.333A4.006 4.006 0 0 1 160 54c0-2.204 1.796-4 4.002-4A4.004 4.004 0 0 1 168 54c0 2.206-1.793 4-3.998 4zM160.866 81.307h6.08l.042-9.56.338-.001c.431-.001 1.693-.142 1.953-.755l.041-9.187c-.397-.412-2.227-2.112-5.377-2.112-1.637 0-3.39.453-5.213 1.35l-4.05 1.9v2.183l5.719-.95.467 17.132zm6.756.693h-7.415l-.467-17.016-5.74.954v-3.44l4.442-2.083c1.91-.938 3.76-1.415 5.5-1.415 3.893 0 5.894 2.343 5.976 2.443l.082.097-.06 9.625c-.321.981-1.632 1.207-2.277 1.258L167.622 82z" mask="url(#b)"/>
        <path fill="#484F59" d="M53.248 52.117c-.69 0-1.248-.558-1.248-1.245v-6.626c0-.688.557-1.246 1.248-1.246.689 0 1.247.558 1.247 1.246v6.626c0 .687-.558 1.245-1.247 1.245M215.5 42a1.5 1.5 0 0 1-1.5-1.502v-7.995a1.5 1.5 0 1 1 3 0v7.995c0 .83-.671 1.502-1.5 1.502" mask="url(#b)"/>
        <path fill="#484F59" d="M56.884 48.49h-6.636a1.245 1.245 0 1 1 0-2.49h6.636c.688 0 1.248.557 1.248 1.246 0 .688-.56 1.245-1.248 1.245M219.497 38h-7.994a1.5 1.5 0 1 1 0-3h7.994c.828 0 1.503.67 1.503 1.5s-.675 1.5-1.503 1.5" mask="url(#b)"/>
        <path stroke="#484F59" stroke-linejoin="round" stroke-width="3" d="M59 52h30v26.5H79V89H59z" mask="url(#b)"/>
        <path stroke="#484F59" stroke-linejoin="round" stroke-width="3.6" d="M222 42h36v31.514h-12V86h-24z" mask="url(#b)"/>
        <path fill="#FFF" stroke="#484F59" stroke-linecap="round" stroke-linejoin="round" stroke-width="3" d="M89 78L79 88.5" mask="url(#b)"/>
        <path fill="#FFF" stroke="#484F59" stroke-linecap="round" stroke-linejoin="round" stroke-width="3.6" d="M258 73l-12 13" mask="url(#b)"/>
        <path fill="#FFF" stroke="#484F59" stroke-linecap="round" stroke-linejoin="round" stroke-width="3" d="M64 65.5h19" mask="url(#b)"/>
        <path fill="#FFF" stroke="#484F59" stroke-linecap="round" stroke-linejoin="round" stroke-width="3.6" d="M228 59h23" mask="url(#b)"/>
        <path fill="#FFF" stroke="#484F59" stroke-linecap="round" stroke-linejoin="round" stroke-width="3" d="M64 72h10.512" mask="url(#b)"/>
        <path fill="#FFF" stroke="#484F59" stroke-linecap="round" stroke-linejoin="round" stroke-width="3.6" d="M228 66h12.423" mask="url(#b)"/>
        <path fill="#FFF" stroke="#484F59" stroke-linecap="round" stroke-linejoin="round" stroke-width="3" d="M64 59.5h19" mask="url(#b)"/>
        <path fill="#FFF" stroke="#484F59" stroke-linecap="round" stroke-linejoin="round" stroke-width="3.6" d="M228 51h23" mask="url(#b)"/>
    </g>
</svg>
