<svg xmlns="http://www.w3.org/2000/svg" xmlns:xlink="http://www.w3.org/1999/xlink" width="346" height="134" viewBox="0 0 346 134">
    <defs>
        <path id="a" d="M10.813 0C4.841 0 0 6.878 0 15.363v103.274C0 127.122 4.842 134 10.813 134h324.375c5.972 0 10.812-6.878 10.812-15.363V15.363C346 6.878 341.16 0 335.187 0H10.813z"/>
    </defs>
    <g fill="none" fill-rule="evenodd">
        <use fill="#F6F6F6" xlink:href="#a"/>
        <g transform="translate(17 32)">
            <path fill="#47B8EB" d="M207.982 38.705c-3.82.032-6.945-3.043-6.98-6.87a6.927 6.927 0 0 1 6.863-6.989 6.924 6.924 0 0 1 6.98 6.871 6.926 6.926 0 0 1-6.863 6.988m14.077-15.53c-3.738-3.683-8.667-5.676-13.892-5.628-5.228.045-10.134 2.137-13.805 5.89-3.655 3.74-5.642 8.667-5.597 13.883.044 5.322 2.221 10.13 5.699 13.635l-.047-5.645c-.014-1.93 1.483-4.186 3.403-4.793a35.562 35.562 0 0 1 20.353-.173c1.935.573 3.467 2.8 3.486 4.733.025 2.852.04 4.698.053 6.343.205-.194.422-.37.618-.573 3.655-3.736 5.64-8.66 5.595-13.869a19.51 19.51 0 0 0-5.866-13.803"/>
            <path fill="#88D8FB" d="M222.33 50.847c-3.681 3.763-8.585 5.853-13.82 5.9-10.797.099-19.656-8.616-19.744-19.427-.046-5.216 1.941-10.143 5.596-13.882 3.671-3.754 8.578-5.846 13.805-5.891 5.225-.05 10.155 1.945 13.893 5.628a19.508 19.508 0 0 1 5.864 13.802c.046 5.21-1.938 10.134-5.594 13.87"/>
            <path fill="#484F59" d="M222.33 50.847l-.916-.899c-3.45 3.524-8.016 5.47-12.916 5.515l-.171.001c-10.009.002-18.2-8.113-18.279-18.154l-.001-.164c.001-4.82 1.848-9.346 5.232-12.81 3.439-3.514 8.007-5.462 12.899-5.506h.002l.174-.002c4.825.003 9.346 1.856 12.807 5.261 3.493 3.44 5.432 8.011 5.48 12.9l.001.168c0 4.812-1.845 9.333-5.227 12.791l.915.899.916.899a20.747 20.747 0 0 0 5.961-14.589l-.001-.19a20.798 20.798 0 0 0-6.248-14.708c-3.924-3.871-9.119-6-14.604-5.997h-.199.001c-5.563.046-10.807 2.283-14.71 6.278a20.776 20.776 0 0 0-5.964 14.606l.001.185c.096 11.457 9.425 20.698 20.844 20.7l.195-.001c5.57-.046 10.812-2.282 14.724-6.284l-.916-.9z"/>
            <path fill="#FFF" stroke="#484F59" stroke-width="2" d="M218.173 40.344a35.572 35.572 0 0 0-20.353.173c-1.92.607-3.417 2.864-3.402 4.792l.046 5.645a19.633 19.633 0 0 0 6.297 4.263l-.073-8.78.073 8.78a19.414 19.414 0 0 0 7.75 1.53 19.504 19.504 0 0 0 6.977-1.366l-.077-9.07.077 9.07a19.483 19.483 0 0 0 6.224-3.961l-.052-6.343c-.02-1.934-1.551-4.16-3.487-4.733"/>
            <path fill="#FFF" stroke="#484F59" stroke-width="2" d="M207.865 24.846c-3.823.033-6.893 3.161-6.862 6.99.034 3.826 3.158 6.902 6.98 6.87a6.926 6.926 0 0 0 6.862-6.988 6.925 6.925 0 0 0-6.98-6.872"/>
            <path fill="#D5E962" stroke="#484F59" stroke-width="2" d="M311.517 51.033a2.078 2.078 0 0 1-2.07 2.071h-68.63a2.078 2.078 0 0 1-2.07-2.07V34.101l-2.846-3.24 2.847-3.754v-2.72a2.08 2.08 0 0 1 2.068-2.073h68.63c1.139 0 2.071.933 2.071 2.073v26.645z"/>
            <path fill="#484F59" d="M245.231 32.042h21.367v-2.568h-21.367M269.162 32.042h21.367v-2.568h-21.367"/>
            <path fill="#484F59" d="M282.624 32.042h17.947v-2.568h-17.947M245.231 38.674h9.189v-2.567h-9.189M259.12 38.674h31.41v-2.567h-31.41M293.094 38.674h10.683v-2.567h-10.683M245.231 45.307h21.367v-2.568h-21.367M269.162 45.307h15.171v-2.568h-15.17M31.266 44.364v-8.58h-1.982v8.58"/>
            <path fill="#484F59" d="M36.905 31.378l-6.894 3.987.99 1.719 6.895-3.987"/>
            <path fill="#484F59" d="M22.653 33.097l6.897 3.988.991-1.72-6.895-3.988"/>
            <circle cx="48" cy="26" r="12" fill="#47B8EB" stroke="#484F59" stroke-width="2"/>
            <circle cx="30" cy="57" r="12" fill="#CDD5D7" stroke="#484F59" stroke-width="2"/>
            <circle cx="12" cy="26" r="12" fill="#88D8FB" stroke="#484F59" stroke-width="2"/>
            <path fill="#FFC400" stroke="#484F59" stroke-width="2" d="M53.01 28.813a19.447 19.447 0 0 0-11.126 0c-1.052.323-1.882 1.55-1.884 2.604v3.085a10.74 10.74 0 0 0 3.423 2.36v-4.8 4.8c1.298.56 2.726.874 4.228.873 1.329 0 2.616-.252 3.823-.714v-4.959 4.959a10.675 10.675 0 0 0 3.42-2.139v-3.465c0-1.058-.83-2.282-1.884-2.604M35.01 59.813a19.447 19.447 0 0 0-11.126 0c-1.052.322-1.882 1.55-1.884 2.604v3.085a10.74 10.74 0 0 0 3.423 2.36v-4.8 4.8c1.298.56 2.726.874 4.228.873 1.329 0 2.616-.252 3.823-.714v-4.959 4.959a10.675 10.675 0 0 0 3.42-2.139v-3.465c0-1.058-.83-2.282-1.884-2.604M17.01 28.813a19.447 19.447 0 0 0-11.126 0c-1.052.323-1.882 1.55-1.884 2.604v3.085a10.74 10.74 0 0 0 3.423 2.36v-4.8 4.8c1.298.56 2.726.874 4.228.873 1.329 0 2.616-.252 3.823-.714v-4.959 4.959a10.675 10.675 0 0 0 3.42-2.139v-3.465c0-1.058-.83-2.282-1.884-2.604M47.782 20A3.785 3.785 0 0 0 44 23.787a3.785 3.785 0 0 0 3.782 3.787 3.786 3.786 0 0 0 3.784-3.787A3.786 3.786 0 0 0 47.782 20M29.782 51A3.785 3.785 0 0 0 26 54.787a3.785 3.785 0 0 0 3.782 3.787 3.786 3.786 0 0 0 3.784-3.787A3.786 3.786 0 0 0 29.782 51M11.782 20A3.785 3.785 0 0 0 8 23.787a3.785 3.785 0 0 0 3.782 3.787 3.786 3.786 0 0 0 3.784-3.787A3.786 3.786 0 0 0 11.782 20"/>
            <path stroke="#47B8EB" stroke-width="2.381" d="M158.91 37.748h15.57"/>
            <path fill="#47B8EB" d="M177.477 37.548l-7.99-7.999v15.999z"/>
            <path fill="#D5E962" d="M126.343 33.232l-1.506 2.8-2.821 5.758-1.793-3.536-2.571 1.736-1.715-3.063-1.406 1.791-.837-.209-2.176-.843.41 2.196 1.883.744-3.231 7.994-1.558 1-1.355-3.052-.838-4.793-2.367-.097-1.097-1.917 1.386-3.851 2.122-.498 1.245.82 2.584-.635-2.966-1.626-2.758-.466-.169-.992L107.38 31l-1.099-1.69 2.787-2.532 2.86 1.003 4.64-1.453s1.895-1.014 4.027-2.136a18.824 18.824 0 0 1 5.748 9.04M89.532 38.364c0-6.016 2.841-11.376 7.25-14.818l-1.229 2.118-1.85 3.399a.165.165 0 0 0 .004.163l1.304 2.084a.173.173 0 0 0 .14.076c.056 0 .108-.03.137-.078l1.182-1.96 2.411 2.924-4.407 3.948-2.467.236a.156.156 0 0 0-.138.108l-.52 1.488a.162.162 0 0 0 .025.156l1.944 2.477-3.116-1.434-.67-.813v-.074zM95.885 46.798l-1.698-3.29 1.827-4.122 5.301 4.791-4.412 9.101-.1-.08-.936-2.126.035-4.197-.017-.077z"/>
            <path fill="#47B8EB" d="M108.296 57.151a18.641 18.641 0 0 1-11.128-3.673l4.492-9.269a.161.161 0 0 0-.037-.192l-5.559-5.024a.16.16 0 0 0-.256.054l-1.949 4.403a.154.154 0 0 0 .005.139l1.713 3.323-.034 4.193.013.067.698 1.584c-3.964-3.328-6.533-8.26-6.71-13.788l.43.52.059.044 3.76 1.73.07.016a.158.158 0 0 0 .126-.063.16.16 0 0 0 0-.2l-2.304-2.939.456-1.305 2.417-.233a.16.16 0 0 0 .093-.04l4.564-4.088a.166.166 0 0 0 .016-.226l-2.657-3.22a.162.162 0 0 0-.265.02l-1.163 1.928-1.112-1.778 1.804-3.31.908-1.568.007.02.012.005c.027 0 .076-.043.047-.077l-.01-.005-.032.016.674-1.164a18.64 18.64 0 0 1 10.852-3.476c4.578 0 8.776 1.652 12.036 4.388a525.49 525.49 0 0 0-3.89 2.065l-4.507 1.409-2.943-1.032-3.134 2.851 1.062 1.635-2.469 1.435.247 1.443 2.905.48 2.209 1.211-1.634.401-1.243-.817-2.431.57-1.496 4.159 1.262 2.203 2.283.094.796 4.554 1.531 3.458 1.962-1.263 3.393-8.397-2.018-.797-.272-1.444 1.65.64 1.062.264 1.233-1.574 1.65 2.947 2.558-1.728 1.922 3.791 3.108-6.342 1.342-2.497c.385 1.496.59 3.066.59 4.682 0 10.36-8.415 18.787-18.764 18.787"/>
            <path fill="#484F59" d="M98.884 30.4l-.055.076.012.005.055-.077z"/>
            <path fill="#D5E962" d="M104.605 22.302l.04-.199h-.203c-.103 0-2.573.024-6.727 2.195l-.138.072 2.557 5.343 3.447-2.793 1.024-4.618z"/>
            <path fill="#484F59" d="M108.293 18.845c-10.748 0-19.494 8.757-19.494 19.52 0 10.761 8.746 19.517 19.494 19.517 10.75 0 19.494-8.756 19.494-19.518s-8.745-19.519-19.494-19.519m0 1.051c10.173 0 18.444 8.286 18.444 18.468 0 10.181-8.271 18.467-18.444 18.467-10.168 0-18.444-8.286-18.444-18.467 0-10.182 8.276-18.468 18.444-18.468"/>
            <path fill="#484F59" d="M96.995 24.441l-.048.075.012.006c.026 0 .075-.045.046-.077l-.01-.004zM99.043 30.535l-.054.076.01.005.055-.077zM96.163 39.101l-.48-.214-1.914 4.328a.524.524 0 0 0 .014.453l1.642 3.185-.032 4.03a.517.517 0 0 0 .044.217l1.137 2.587a.522.522 0 0 0 .953.018l4.572-9.434a.528.528 0 0 0-.12-.62l-5.465-4.94a.522.522 0 0 0-.83.176l.48.214-.353.39 5.171 4.674-3.904 8.06-.636-1.446.034-4.047a.512.512 0 0 0-.059-.245l-1.586-3.078 1.812-4.096-.48-.212-.352.39.352-.39z"/>
            <path fill="#484F59" d="M97.272 22.558l-1.817 3.137-.006.012-1.82 3.338a.527.527 0 0 0 .015.532l1.282 2.047a.527.527 0 0 0 .45.247.527.527 0 0 0 .445-.256l.894-1.483 1.82 2.206-3.982 3.566-2.307.22a.525.525 0 0 0-.444.35l-.512 1.464a.528.528 0 0 0 .083.498l.978 1.246-1.615-.743-.921-1.12-.81.668.998 1.214c.05.061.113.11.185.143l3.698 1.701a.525.525 0 0 0 .632-.803l-2.142-2.73.304-.873 2.144-.205a.52.52 0 0 0 .301-.132l4.485-4.018a.525.525 0 0 0 .055-.726l-2.612-3.167a.524.524 0 0 0-.854.063l-.837 1.388-.665-1.063 1.67-3.062 1.812-3.132-.907-.527z"/>
            <path fill="#484F59" d="M97.968 24.679l-.473.227 2.645 5.53 3.847-3.117 1.17-5.275-.625-.028-.027-.001c-.172 0-2.652.04-6.78 2.198l-.45.235.22.458.473-.227.244.467c3.979-2.079 6.278-2.079 6.293-2.08v-.462l-.02.462h.02v-.462l-.02.462.023-.526-.513-.112-.952 4.304-2.53 2.05-2.07-4.33-.475.227.244.467-.244-.467zM120.666 23.512c-2.33 1.222-4.566 2.416-4.566 2.416l.247.464-.156-.502-4.315 1.348-2.983-1.046-3.47 3.158 1.002 1.545-2.315 1.344.332 1.926 3.05.504 1.292.71-.54.131-1.218-.802-2.736.642-1.596 4.434 1.425 2.488 2.153.088.743 4.25 1.693 3.81 2.383-1.536 3.518-8.7-2.14-.847-.11-.575 1.022.396 1.305.327 1.022-1.302 1.548 2.765 2.5-1.69 2.033 4.01 3.373-6.886 1.821-3.386-.924-.499-1.83 3.403-2.456 5.014-1.618-3.194-2.541 1.717-1.758-3.142-1.575 2.005-.582-.146-2.718-1.055.563 3.003 1.694.67-2.996 7.41-1.072.69-1.144-2.572-.866-4.956-2.419-.099-.894-1.562 1.238-3.44 1.74-.409 1.227.806 3.606-.885-3.819-2.094-2.49-.411-.08-.468 2.639-1.533-1.12-1.722 2.348-2.135 2.722.953 4.693-1.466.044-.024s.14-.073.384-.205c.738-.392 2.43-1.292 4.174-2.207l-.487-.931z"/>
            <path stroke="#484F59" stroke-linecap="round" stroke-linejoin="round" stroke-width="2.381" d="M142.56 42.744l4.18-4.188-4.18-4.189M145.604 38.556h-15.156M73.907 34.367l-4.179 4.19 4.18 4.187M70.865 38.556H86.02M112.416 4.186L108.233 0l-4.181 4.186M108.234 1.139v15.175M104.052 72.652l4.183 4.186 4.18-4.186M108.234 75.7V60.523M135.464 17.214l-.003-5.92-5.912-.003M134.657 12.097L123.94 22.831M81.003 59.9l.004 5.921h5.912M81.81 65.016l10.715-10.733M129.55 65.822h5.911l.003-5.922M134.66 65.016l-10.72-10.73M86.919 11.291l-5.915.003-.001 5.92M81.809 12.098l10.717 10.73"/>
        </g>
    </g>
</svg>
