<svg xmlns="http://www.w3.org/2000/svg" xmlns:xlink="http://www.w3.org/1999/xlink" width="335" height="134" viewBox="0 0 335 134">
    <defs>
        <path id="a" d="M10.469 0C4.688 0 0 6.878 0 15.363v103.274C0 127.122 4.688 134 10.469 134H324.53c5.782 0 10.469-6.878 10.469-15.363V15.363C335 6.878 330.313 0 324.531 0H10.47z"/>
        <path id="c" d="M46.904 8C48.606 8 50 9.41 50 11.135v18.73C50 31.589 48.606 33 46.904 33H3.095C1.391 33 0 31.59 0 29.865v-18.73C0 9.411 1.391 8 3.095 8h43.809z"/>
    </defs>
    <g fill="none" fill-rule="evenodd">
        <mask id="b" fill="#fff">
            <use xlink:href="#a"/>
        </mask>
        <use fill="#F6F6F6" xlink:href="#a"/>
        <g mask="url(#b)">
            <g transform="translate(113 59)">
                <use fill="#FFF" xlink:href="#c"/>
                <path fill="#484F59" d="M47.29 7.635v.634c.673 0 1.282.276 1.73.726.445.45.72 1.064.72 1.74v18.528c0 .678-.275 1.29-.72 1.74a2.428 2.428 0 0 1-1.73.727H3.71a2.426 2.426 0 0 1-1.73-.726 2.46 2.46 0 0 1-.72-1.741V10.736c0-.678.274-1.292.72-1.74a2.426 2.426 0 0 1 1.73-.727h43.58V7H3.71C1.662 7.002.001 8.677 0 10.736v18.527C.002 31.322 1.663 32.998 3.71 33h43.58c2.044-.002 3.708-1.677 3.71-3.737V10.736c-.002-2.06-1.666-3.734-3.71-3.736v.635z"/>
                <path fill="#D5E962" stroke="#484F59" d="M6 30h39V10H6z"/>
                <path fill="#484F59" d="M2 17v6h1v-6M47 19v2h1v-2"/>
                <path fill="#FFDC69" stroke="#484F59" d="M75.996 14.184l-6.514-6.236H68.38l-3.5-.092 6.53 6.251-9.31-8.853h-1.104L56.1 5.165 53.84 3H41.01c-.002.05-.01.098-.01.151V4.35c0 1.99 1.689 3.601 3.771 3.601h6.984l7.942 7.579v6.633l-.073 5.491-6.693 3.758c-.459-.002-2.111.052-3.626.176h-2.97c-1.974 0-3.573 1.528-3.573 3.41v1.135c0 .05.005.097.008.143l7.885.002 12.208-.003V49H76V14.426l-.004-.242z"/>
                <path fill="#F1FAFC" stroke="#484F59" d="M54 56h22V43H54z"/>
                <path fill="#81CDEE" stroke="#484F59" d="M76 75V49H49v26"/>
                <path fill="#88D8FB" d="M49 75h14V49H49z"/>
                <path fill="#F1FAFC" stroke="#484F59" d="M52 55.5a1.5 1.5 0 1 0 3 0 1.5 1.5 0 0 0-3 0M52 61.5a1.5 1.5 0 1 0 3 0 1.5 1.5 0 0 0-3 0M52 67.5a1.5 1.5 0 1 0 3 0 1.5 1.5 0 0 0-3 0"/>
                <path fill="#CCEEF5" d="M64 15L54 5"/>
                <path fill="#47B8EB" stroke="#484F59" d="M41 11H22v11.856h12.575L37.8 26v-3.144H41z"/>
                <path fill="#FFF" stroke="#484F59" d="M11 0h24v16.597H20.003L15.482 21v-4.403H11z"/>
                <path fill="#BAE5F8" d="M29 6H14"/>
                <path fill="#484F59" d="M29 5H14v1h15"/>
                <path fill="#BAE5F8" d="M29 8H14"/>
                <path fill="#484F59" d="M29 8H14v1h15"/>
                <path fill="#BAE5F8" d="M29 12H14"/>
                <path fill="#484F59" d="M29 12H14v1h15"/>
            </g>
        </g>
        <g mask="url(#b)">
            <path fill="#FFF" d="M225 55.19c0-1.21.974-2.19 2.18-2.19h36.64c1.204 0 2.18.98 2.18 2.19v53.622a2.185 2.185 0 0 1-2.18 2.188h-36.64c-1.206 0-2.18-.98-2.18-2.188V55.19z"/>
            <path fill="#484F59" d="M225.616 54.8h.616a1.558 1.558 0 0 1 1.551-1.564h36.434a1.54 1.54 0 0 1 1.098.459c.282.284.454.67.454 1.105v53.403a1.555 1.555 0 0 1-1.552 1.56h-36.434a1.548 1.548 0 0 1-1.098-.456 1.56 1.56 0 0 1-.453-1.104V54.8H225v53.403a2.79 2.79 0 0 0 2.783 2.797h36.434a2.79 2.79 0 0 0 2.783-2.797V54.8a2.791 2.791 0 0 0-2.783-2.8h-36.434A2.791 2.791 0 0 0 225 54.8h.616z"/>
            <path fill="#FFF" d="M228 106h34V59h-34z"/>
            <path fill="#484F59" d="M228 106h35V58h-35v48zm1.244-1.248h32.51V59.247h-32.51v45.505zM247 55h-3v1h3M247 107h-2v1h2"/>
            <path fill="#35424B" d="M231 99h7v-1h-7M231 102h7v-1h-7"/>
            <path fill="#CDD5D7" stroke="#484F59" d="M231 96h7v-4h-7z"/>
            <path fill="#88D8FB" d="M232 85h17V66h-17z"/>
            <path fill="#484F59" d="M231.61 84.373V85H249V65h-18v20h.61v-.627h.609v-18.12h15.562v17.492H231.61v.628h.61z"/>
            <path fill="#35424B" d="M240 99h7v-1h-7M240 102h7v-1h-7"/>
            <path fill="#CDD5D7" stroke="#484F59" d="M240 96h7v-4h-7z"/>
            <path fill="#35424B" d="M250 99h7v-1h-7M250 102h7v-1h-7"/>
            <path fill="#CDD5D7" d="M250 96h7v-4h-7z"/>
            <path fill="#484F59" d="M250.631 95.4v.6H258v-5h-8v5h.631v-.6h.631v-3.2h5.477v2.6h-6.108v.6h.631z"/>
            <path fill="#FFC400" stroke="#484F59" d="M218.5 93.5l4.47-9.451c6.02-.177 9.03-.177 9.03 0l-.024 1.717c-.04 2.407-2.078 4.327-4.548 4.286l-.982-.03-1.385 4.05c2.815 2.02 4.719 5.88 4.719 10.307 0 3.401-1.123 6.465-2.921 8.621h-7.831l-.528-19.5z"/>
            <path fill="#F1FAFC" stroke="#484F59" d="M217 122h18v-10h-18z"/>
            <path fill="#47B8EB" stroke="#484F59" d="M237 134v-13h-23v13"/>
            <path fill="#41A9D8" d="M214 134h11v-13h-11z"/>
            <path fill="#F1FAFC" stroke="#484F59" d="M216 124a1.001 1.001 0 0 0 2 0 1 1 0 1 0-2 0M216 128a1.001 1.001 0 0 0 2 0 1 1 0 1 0-2 0M216 132a1.001 1.001 0 0 0 2 0 1 1 0 1 0-2 0"/>
            <path fill="#484F59" d="M250 66h7v-1h-7M231 90h16v-1h-16M250 69h10v-1h-10M250 73h10v-1h-10M250 77h10v-1h-10M250 79h10v-1h-10"/>
            <path fill="#CDD5D7" stroke="#484F59" d="M229 63h33v-4h-33z"/>
            <path fill="#484F59" d="M231 61h1v-1h-1M232 61h1v-1h-1M234 61h1v-1h-1"/>
            <path fill="#FFC400" stroke="#484F59" d="M273.136 119v-3.408c1.737-1.287 2.864-3.335 2.864-5.648v-12.25l-.135-2.706a2.635 2.635 0 0 0-2.646-2.627c-1.463 0-2.648.52-2.648 1.969v-.655a2.636 2.636 0 0 0-2.648-2.627 2.637 2.637 0 0 0-2.647 2.627V92.36c0-1.449-1.185-2.624-2.648-2.624-1.462 0-2.648 1.175-2.648 2.624v1.478c0-3.555-.023-15.124-.023-15.124 0-1.496-1.228-2.715-2.74-2.715-1.512 0-2.737 1.22-2.737 2.715l-.016 26.534-.055-1.294v-5.424c0-2.215-1.807-4.01-4.044-4.01h-1.348c-.058 0 .056.005 0 .01V106.212l7.668 9.036s1.986 1.248 3.21 1.544V119"/>
            <path fill="#F1FAFC" stroke="#484F59" d="M258 128h17v-10h-17z"/>
            <path fill="#47B8EB" stroke="#484F59" d="M257 134v-6h22v6"/>
            <path fill="#41A9D8" d="M268 134h11v-6h-11z"/>
            <path fill="#F1FAFC" stroke="#484F59" d="M277 132a1.001 1.001 0 0 1-2 0 1 1 0 0 1 2 0"/>
            <path fill="#47B8EB" d="M239.87 75.496a2.464 2.464 0 0 1-2.494-2.435 2.462 2.462 0 0 1 2.452-2.474 2.464 2.464 0 0 1 2.497 2.433 2.465 2.465 0 0 1-2.455 2.476m5.035-5.502A6.975 6.975 0 0 0 239.936 68a6.978 6.978 0 0 0-4.935 2.088 6.869 6.869 0 0 0-2 4.917 6.88 6.88 0 0 0 2.037 4.83l-.017-2c-.005-.683.529-1.482 1.217-1.698a12.836 12.836 0 0 1 7.277-.06c.69.203 1.239.99 1.245 1.676l.02 2.247c.073-.07.15-.132.22-.203a6.895 6.895 0 0 0-.096-9.803"/>
            <path fill="#88D8FB" d="M245 79.893A6.95 6.95 0 0 1 240.06 82c-3.86.035-7.029-3.077-7.06-6.938a6.944 6.944 0 0 1 2.001-4.957A6.948 6.948 0 0 1 239.936 68a6.946 6.946 0 0 1 4.968 2.01A6.973 6.973 0 0 1 247 74.94a6.94 6.94 0 0 1-2 4.953"/>
            <path fill="#484F59" d="M245.363 80.248l-.352-.344a6.967 6.967 0 0 1-4.951 2.112h-.067c-3.838.002-6.98-3.107-7.01-6.953V75a6.972 6.972 0 0 1 2.006-4.908 6.955 6.955 0 0 1 4.947-2.108l.066-.001a6.957 6.957 0 0 1 4.912 2.014 6.976 6.976 0 0 1 2.103 4.942v.065a6.968 6.968 0 0 1-2.006 4.9l.352.343.351.344A7.936 7.936 0 0 0 248 75.005v-.074l-.001-.03.001.03a7.966 7.966 0 0 0-2.396-5.633A7.942 7.942 0 0 0 240.002 67h-.075a7.952 7.952 0 0 0-5.64 2.404A7.95 7.95 0 0 0 232 75.001v.07c.037 4.388 3.614 7.928 7.993 7.929h.075a7.946 7.946 0 0 0 5.646-2.408l-.351-.344z"/>
            <path fill="#FFF" stroke="#484F59" d="M243.705 76.472a14.125 14.125 0 0 0-7.457.059c-.705.204-1.253.965-1.248 1.615l.019 1.903a7.215 7.215 0 0 0 2.307 1.436l-.028-2.96.028 2.96c.871.34 1.832.524 2.838.515a7.675 7.675 0 0 0 2.557-.46l-.029-3.057.029 3.058A7.282 7.282 0 0 0 245 80.206l-.019-2.139c-.007-.652-.57-1.402-1.276-1.595M240.478 70A2.498 2.498 0 0 0 238 72.522 2.5 2.5 0 1 0 240.478 70"/>
        </g>
        <g mask="url(#b)">
            <path fill="#FFDC69" stroke="#484F59" d="M63.159 61.482c-.46 1.2.111 2.56 1.273 3.036l15.48 6.318c1.158.475 2.474-.117 2.93-1.318.458-1.2-.11-2.56-1.272-3.033l-15.482-6.321c-1.159-.475-2.471.117-2.93 1.318"/>
            <path fill="#FFC400" d="M88.252 77.863s9.838 13.824 7.342 16.307l-.188.188V108H78.232v-7.499l-6.361-6.331a6.343 6.343 0 0 1 0-8.997l7.344-7.31a6.411 6.411 0 0 1 9.037 0"/>
            <path fill="#484F59" d="M87.7 78.475l-.512.362s.03.04.084.118a98.02 98.02 0 0 1 4.08 6.364c.889 1.521 1.748 3.124 2.377 4.569.316.721.574 1.403.75 2.01.175.604.268 1.134.266 1.531 0 .216-.027.389-.067.516a.628.628 0 0 1-.151.265l-.188.187-.184.185v13.165H78.406l.001-7.072-6.481-6.465a5.65 5.65 0 0 1-1.67-4.019 5.655 5.655 0 0 1 1.67-4.021l7.27-7.252a5.685 5.685 0 0 1 4.03-1.664c1.462 0 2.917.553 4.03 1.664l.444-.443-.512.362.512-.362.444-.443A6.94 6.94 0 0 0 83.226 76a6.94 6.94 0 0 0-4.917 2.032l-7.272 7.252A6.91 6.91 0 0 0 69 90.191a6.906 6.906 0 0 0 2.037 4.906l6.113 6.096V109h18.261V95.099l.004-.002c.22-.218.37-.49.46-.772.09-.285.125-.583.125-.896-.001-.615-.135-1.287-.356-2.016-.387-1.274-1.043-2.726-1.81-4.203-2.3-4.426-5.614-9.085-5.62-9.098l-.032-.043-.038-.037-.444.443z"/>
            <path fill="#FFF" d="M92 94.905C92 96.609 90.59 98 88.866 98h-18.73C68.41 98 67 96.609 67 94.905v-43.81C67 49.391 68.41 48 70.135 48h18.731C90.591 48 92 49.391 92 51.095v43.81z"/>
            <path fill="#484F59" d="M92.365 94.29h-.634a2.43 2.43 0 0 1-.725 1.73c-.45.446-1.063.72-1.74.72H70.736c-.679 0-1.29-.274-1.74-.72a2.428 2.428 0 0 1-.727-1.73V50.71c0-.674.276-1.284.726-1.73a2.462 2.462 0 0 1 1.741-.72h18.528c.678 0 1.291.274 1.741.72.449.446.725 1.056.725 1.73v43.58H93V50.71c-.002-2.046-1.676-3.708-3.735-3.71H70.737c-2.059.002-3.735 1.664-3.737 3.71v43.58c.002 2.047 1.678 3.708 3.737 3.71h18.528c2.059-.002 3.733-1.664 3.735-3.71h-.635z"/>
            <path fill="#47B8EB" stroke="#484F59" d="M70 93h20V54H70z"/>
            <path fill="#FFDC69" stroke="#484F59" d="M94.266 68.025c-2.521.043-4.533 2.183-4.492 4.778l.03 1.028v9.718C86.938 85.766 85 89.924 85 94.7c-.001 3.67 1.146 6.975 2.98 9.301h7.99V89.672l.01-21.664c-.042 0-.614.005-1.714.017z"/>
            <path fill="#FFF" d="M77 115h22v-13H77z"/>
            <path fill="#484F59" d="M76.64 114.369V115H98.36a.646.646 0 0 0 .452-.185.63.63 0 0 0 .189-.446V101.63a.627.627 0 0 0-.189-.446.646.646 0 0 0-.452-.185H76.64a.646.646 0 0 0-.452.185.626.626 0 0 0-.188.446v12.738c0 .167.068.328.188.446s.283.185.452.185v-.631h.64v-12.106H97.72v11.474H76.64v.632h.64-.64z"/>
            <path fill="#CDD5D7" stroke="#575F6B" d="M72 134v-28h27v28"/>
            <path fill="#B7BEC0" d="M86 134v-27h12v27"/>
            <path fill="#F1FAFC" stroke="#575F6B" d="M75 111.5a1.5 1.5 0 1 0 3 0 1.5 1.5 0 0 0-3 0"/>
            <path fill="#FFF" stroke="#484F59" d="M95.522 52.252V50.81a.822.822 0 0 0-.833-.81H82.831a.822.822 0 0 0-.831.81v7.38c0 .45.374.81.831.81H94.69a.82.82 0 0 0 .833-.81v-1.444L100 58.915v-8.832l-4.478 2.17z"/>
            <path fill="#FFF" d="M85 50A3 3 0 1 0 85 44 3 3 0 0 0 85 50"/>
            <path fill="#484F59" d="M84.5 50.354V51a3.5 3.5 0 1 0 0-7 3.5 3.5 0 0 0 0 7v-1.292a2.19 2.19 0 0 1-1.56-.648c-.4-.4-.647-.948-.647-1.56 0-.61.247-1.16.647-1.56.402-.4.95-.648 1.56-.648.612 0 1.159.247 1.56.648.4.4.647.95.647 1.56 0 .612-.247 1.16-.647 1.56-.401.402-.948.648-1.56.648v.646z"/>
            <path fill="#FFF" d="M91.004 50A2.997 2.997 0 0 0 94 47a3.001 3.001 0 1 0-2.996 3"/>
            <path fill="#484F59" d="M90.504 50.354V51a3.48 3.48 0 0 0 2.472-1.026A3.492 3.492 0 0 0 94 47.5c0-.964-.392-1.843-1.024-2.474A3.5 3.5 0 1 0 90.503 51v-1.292a2.196 2.196 0 0 1-1.563-.648c-.4-.4-.648-.948-.648-1.56 0-.61.247-1.158.648-1.56a2.2 2.2 0 0 1 1.564-.648c.61 0 1.157.247 1.557.647.401.402.645.949.647 1.561a2.196 2.196 0 0 1-.647 1.56c-.4.402-.947.648-1.557.648v.646z"/>
            <path fill="#FFDC69" stroke="#484F59" d="M65.156 68.421a2.256 2.256 0 0 0 1.246 2.912l1.573.51a2.202 2.202 0 0 0 2.87-1.265c.448-1.152-.11-2.455-1.246-2.909l-1.577-.513c-1.134-.453-2.417.113-2.866 1.265M65.155 81.422c-.449 1.152.11 2.455 1.247 2.91l1.575.51c1.134.456 2.418-.11 2.868-1.264.449-1.152-.11-2.455-1.247-2.909l-1.575-.512a2.2 2.2 0 0 0-2.868 1.265M65.156 74.421c-.45 1.154.11 2.457 1.244 2.912l1.577.51c1.134.455 2.42-.111 2.868-1.264.448-1.153-.11-2.456-1.245-2.91l-1.578-.511c-1.134-.456-2.418.111-2.866 1.263"/>
        </g>
    </g>
</svg>
