<svg xmlns="http://www.w3.org/2000/svg" width="40" height="40" viewBox="0 0 40 40">
    <g fill="none" fill-rule="evenodd">
        <path fill="#FFF" fill-rule="nonzero" d="M26 18.429c2.671 0 4.714-2.043 4.714-4.715C30.714 11.043 28.671 9 26 9c-2.671 0-4.714 2.043-4.714 4.714 0 2.672 2.043 4.715 4.714 4.715zm-11 0c2.671 0 4.714-2.043 4.714-4.715C19.714 11.043 17.671 9 15 9c-2.671 0-4.714 2.043-4.714 4.714 0 2.672 2.043 4.715 4.714 4.715zm-.786 3.142C10.858 21.571 4 23.457 4 27.071V31h20.429v-3.929c0-3.614-6.859-5.5-10.215-5.5zm11.786 0c-.471 0-.943 0-1.571.158 1.885 1.257 3.142 3.142 3.142 5.342V31H37v-3.929c0-3.614-7.386-5.5-11-5.5z"/>
        <path d="M0 0h40v40H0z"/>
    </g>
</svg>
