<svg xmlns="http://www.w3.org/2000/svg" xmlns:xlink="http://www.w3.org/1999/xlink" width="40" height="40" viewBox="0 0 40 40">
    <defs>
        <path id="a" d="M20.637.579H1.364c-.491 0-.89.384-.89.857v13.032c0 .473.398.858.89.858h10.685l4.098 2.949c.554.398 1.006.18 1.006-.486v-2.464h3.483c.491 0 .89-.384.89-.857V1.436c0-.473-.398-.857-.89-.857zM6.145 9.176c-.76 0-1.376-.594-1.376-1.326 0-.732.616-1.325 1.376-1.325.76 0 1.377.594 1.377 1.325-.001.732-.617 1.326-1.377 1.326zm4.856 0c-.76 0-1.377-.594-1.377-1.326 0-.732.617-1.325 1.377-1.325s1.376.594 1.376 1.325c0 .732-.616 1.326-1.376 1.326zm4.855 0c-.76 0-1.376-.594-1.376-1.326 0-.732.617-1.325 1.376-1.325.76 0 1.377.594 1.377 1.325 0 .732-.616 1.326-1.377 1.326z"/>
    </defs>
    <g fill="none" fill-rule="evenodd" transform="translate(9 11)">
        <mask id="b" fill="#fff">
            <use xlink:href="#a"/>
        </mask>
        <use fill="#FFF" fill-rule="nonzero" xlink:href="#a"/>
        <g fill="#FFF" mask="url(#b)">
            <path d="M-9-11h40v40H-9z"/>
        </g>
    </g>
</svg>
