<svg xmlns="http://www.w3.org/2000/svg" width="40" height="40" viewBox="0 0 40 40">
    <g fill="none" fill-rule="evenodd">
        <path fill="#FFF" fill-rule="nonzero" d="M24.083 15.064l-1.03-.645 2.577-4.147 1.031.645-2.578 4.147zM20.608 9h-1.216v4.888h1.216V9zm-3.698 5.419l-2.578-4.147-1.031.651 2.578 4.147 1.03-.651zM34 19.997l-9.86 2.076c.121.493.121 1.1.121 1.591 0 4.032-3.284 7.336-7.307 7.336-3.405 0-6.206-2.32-7.059-5.374-.362.243-.852.486-1.464.486A2.444 2.444 0 0 1 6 23.67a2.444 2.444 0 0 1 2.431-2.441c.612 0 1.095.243 1.464.486.853-3.055 3.654-5.374 7.06-5.374h1.215v2.44h3.654v-2.44h12.17v3.655H34zM9.654 23.664c0-.734-.49-1.22-1.216-1.22s-1.216.486-1.216 1.22c0 .735.49 1.22 1.216 1.22.725 0 1.216-.485 1.216-1.22z"/>
        <path d="M0 0h40v40H0z"/>
    </g>
</svg>
