<svg xmlns="http://www.w3.org/2000/svg" xmlns:xlink="http://www.w3.org/1999/xlink" width="40" height="40" viewBox="0 0 40 40">
    <defs>
        <path id="a" d="M11.343 12.619a2.997 2.997 0 0 1 2.245-1.008c1.657 0 3 1.34 3 2.99a2.995 2.995 0 0 1-3 2.992 2.995 2.995 0 0 1-2.853-3.918l-5.378-3.5A2.998 2.998 0 0 1 3 11.314c-1.657 0-3-1.34-3-2.99a2.995 2.995 0 0 1 3-2.992c.96 0 1.814.45 2.363 1.149l5.356-2.614A2.995 2.995 0 0 1 13.588 0c1.657 0 3 1.339 3 2.99a2.995 2.995 0 0 1-3 2.991 2.997 2.997 0 0 1-2.282-1.05L5.903 7.568a2.987 2.987 0 0 1 0 1.51l5.44 3.54z"/>
    </defs>
    <g fill="none" fill-rule="evenodd" transform="translate(11 12)">
        <mask id="b" fill="#fff">
            <use xlink:href="#a"/>
        </mask>
        <use fill="#979797" fill-rule="nonzero" xlink:href="#a"/>
        <g fill="#00ACFF" mask="url(#b)">
            <path d="M-12.706-13.667h42v42h-42z"/>
        </g>
    </g>
</svg>
