<svg xmlns="http://www.w3.org/2000/svg" xmlns:xlink="http://www.w3.org/1999/xlink" width="24" height="24" viewBox="0 0 24 24">
    <defs>
        <path id="a" d="M16.85 15.718l5.15 5.15L19.867 23l-5.31-5.31a9.511 9.511 0 0 1-5.003 1.413C4.277 19.103 0 14.827 0 9.552 0 4.276 4.277 0 9.554 0c5.276 0 9.554 4.276 9.554 9.552 0 2.35-.85 4.502-2.258 6.166zm-7.296.369a6.536 6.536 0 1 0 0-13.07 6.536 6.536 0 1 0 0 13.07z"/>
    </defs>
    <g fill="none" fill-rule="evenodd" transform="translate(1 1)">
        <mask id="b" fill="#b6b2b2">
            <use xlink:href="#a"/>
        </mask>
        <use fill="#b6b2b2" fill-rule="nonzero" xlink:href="#a"/>
        <g fill="#FFF" mask="url(#b)">
            <path d="M-1-1h24v24H-1z"/>
        </g>
    </g>
</svg>
