<svg xmlns="http://www.w3.org/2000/svg" width="138" height="138" viewBox="0 0 138 138">
    <g fill="none" fill-rule="evenodd">
        <circle cx="69" cy="69" r="69" fill="#F6F6F6"/>
        <path fill="#D5E962" fill-rule="nonzero" stroke="#484F59" stroke-width="2.85" d="M57.64 69.025c10.292 0 18.64-8.511 18.64-19.005C76.28 39.527 67.931 31 57.64 31S39 39.511 39 50.004c0 10.494 8.348 19.02 18.64 19.02z"/>
        <path fill="#484F59" d="M60.36 48.103h-3.53c-1.283 0-2.323-.952-2.323-2.127 0-1.176 1.04-2.128 2.324-2.128h6.212c.848 0 1.54-.634 1.54-1.41 0-.776-.692-1.41-1.54-1.41H60.13v-1.963c0-.776-.694-1.41-1.54-1.41-.848 0-1.541.634-1.541 1.41v1.963h-.218c-2.978 0-5.405 2.221-5.405 4.948 0 2.727 2.427 4.948 5.405 4.948h3.53c1.283 0 2.323.952 2.323 2.127 0 1.176-1.04 2.128-2.323 2.128h-6.329c-.847 0-1.54.634-1.54 1.41 0 .776.693 1.41 1.54 1.41h3.03v2.01c0 .776.693 1.41 1.54 1.41.847 0 1.54-.634 1.54-1.41V58h.296c2.952-.035 5.327-2.244 5.327-4.948 0-2.726-2.426-4.948-5.404-4.948z"/>
        <path fill="#FFDC69" fill-rule="nonzero" stroke="#484F59" stroke-width="2.85" d="M100.924 72.031H98.69c-1.475-4.492-4.36-8.48-8.213-11.57 0-.141-.031-.299-.063-.44-.809-2.822.19-5.391 1.348-7.235.808-1.293-.238-2.948-1.76-2.759-3.409.426-5.755 1.671-7.372 3.074a7.115 7.115 0 0 0-2.252 3.688C77.936 66.845 68.82 74.332 57.96 74.332c-5.28 0-10.131-1.765-14.015-4.728a22.18 22.18 0 0 0-1.427 14.706 22.669 22.669 0 0 0 1.902 5.028c1.094 2.348 2.68 5.09 4.867 7.313 3.155 3.232 3.694 7.235 3.774 8.969v.851A1.656 1.656 0 0 0 54.709 108h10.02c.904 0 1.65-.725 1.65-1.64v-2.458c1.458.189 2.948.3 4.454.3 1.19 0 2.347-.064 3.504-.19v2.349c0 .898.73 1.639 1.649 1.639h10.051c.904 0 1.65-.725 1.65-1.64v-2.458c.015-.82.3-4.083 3.408-6.872l.333-.284c.031-.032.063-.047.095-.079 3.456-3.058 6.009-6.872 7.324-11.128h2.109A3.036 3.036 0 0 0 104 82.513v-7.456a3.084 3.084 0 0 0-3.076-3.026zm-12.54.536a2.476 2.476 0 0 1-2.49-2.475 2.476 2.476 0 0 1 2.49-2.474c1.379 0 2.489 1.103 2.489 2.474a2.476 2.476 0 0 1-2.49 2.475z"/>
    </g>
</svg>
