<svg xmlns="http://www.w3.org/2000/svg" width="138" height="138" viewBox="0 0 138 138">
    <g fill="none" fill-rule="evenodd">
        <circle cx="69" cy="69" r="69" fill="#F6F6F6"/>
        <path fill="#D5E962" stroke="#484F59" stroke-width="3" d="M40.787 76.449c-.678 1.883-2.445 3.156-4.415 3.156h-4.58V46.618l2.03.768 10.924 4.133a4.736 4.736 0 0 1 2.656 2.533 4.931 4.931 0 0 1 .13 3.684l-6.745 18.713z"/>
        <path fill="#FFDC69" stroke="#484F59" stroke-width="3" d="M87.426 87.713c-1.035.819-2.389 1.172-3.387.366a1.618 1.618 0 0 1-.345-.307c-1.213-1.055-5.136-5.146-9.161-9.477-.016-.017-.019-.017-.036 0-.041.04-.043.126-.001.171a484.95 484.95 0 0 0 3.798 4.044c2.205 2.323 3.95 4.11 4.943 5.043l.64.6-.21.852c-.265 1.077-1.022 1.825-1.891 2.275-1.406.728-3.114.728-4.09-.144l-.072-.05c-.098-.106-.15-.162-.182-.2.033.04.076.087.127.134-1.596-1.338-5.187-5.137-7.673-7.926-.016-.019-.022-.02-.036-.006-.043.04-.047.13-.008.172.476.533 1.53 1.687 2.629 2.865 1.808 1.937 3.368 3.536 4.456 4.537l.717.66-.311.923c-.384 1.138-1.181 2.078-2.222 2.552-1.132.519-2.447.422-3.652-.496l-.078-.064c-1.034-.905-2.55-2.427-4.393-4.376a231.13 231.13 0 0 1-3.304-3.572c-.014-.015-.02-.015-.035 0-.041.04-.044.127-.003.172 2.135 2.359 4.557 4.94 6.395 6.729l2.232 2.174-3.092.389a7.99 7.99 0 0 1-.984.063c-1.295 0-3.333-.733-4.522-1.54-1.805-1.224-9.053-6.964-13.942-11.188-.712-.616-1.964-1.603-4.724-3.741a284.374 284.374 0 0 1-2.608-2.034l-.846-.672 6.513-17.925 1-.045c1.246-.056 2.647-.17 5.572-.436 1.433-.13 2.538-.226 3.57-.31l3.89-.312-2.678 2.838c-2.39 2.531-3.873 5.135-3.649 7.172.109.976.613 1.768 1.52 2.352 1.784 1.153 5.64.071 7.485-2.27l.368-.467.589-.088c1.16-.173 1.977-.451 3.055-1.003l.956-.489.772.748c1.485 1.44 2.987 2.753 6.736 5.941 7.213 6.133 9.937 8.666 11.175 10.898.573 1.032.583 2.104.14 3.05a3.922 3.922 0 0 1-1.143 1.418z"/>
        <path fill="#FFDC69" stroke="#484F59" stroke-width="3" d="M87.645 81.777c-1.597-2.197-4.18-4.571-10.53-9.953-4.272-3.62-5.928-5.074-7.426-6.614-.009-.01-.01-.01-.009-.011-1.983 1.093-2.778 1.388-4.592 1.574-.004 0-.011.005-.02.02-1.511 2.465-5.728 3.948-7.69 2.688-.9-.58-1.335-1.32-1.43-2.177-.21-1.916 1.299-4.572 3.776-7.12 5.846-6.012 10.411-7.292 16.082-4.285 3.743 1.984 7.666 3.424 11.127 4.37l.854.233.209.861a11.171 11.171 0 0 1 .049.216c.044.196.063.269.084.328l6.381 17.498-6.076 3.457-.789-1.085z"/>
        <path fill="#D5E962" stroke="#484F59" stroke-width="3" d="M98.561 82.395c-1.897 0-3.6-1.227-4.253-3.04L87.926 61.65a4.75 4.75 0 0 1 .126-3.543 4.565 4.565 0 0 1 2.56-2.443l12.364-4.677v31.408h-4.415z"/>
    </g>
</svg>
