<svg xmlns="http://www.w3.org/2000/svg" width="138" height="138" viewBox="0 0 138 138">
    <g fill="none" fill-rule="evenodd">
        <circle cx="69" cy="69" r="69" fill="#F6F6F6"/>
        <g stroke="#484F59" stroke-width="2.85">
            <path fill="#FFF" d="M47.368 29.3c-8.622 0-15.631 5.62-15.631 12.524 0 6.904 7.009 12.524 15.631 12.524.966.002 1.93-.069 2.885-.21l5.69 5.197c.225.21.522.325.83.325a1.21 1.21 0 0 0 1.223-1.218v-7.44A11.524 11.524 0 0 0 63 41.824C63 34.92 55.991 29.3 47.368 29.3z"/>
            <path fill="#D5E962" fill-rule="nonzero" d="M75.843 85.013h.229l7.357 1.882 7.623-1.882h.229a2.386 2.386 0 0 1 2.35 2.395v14.087a2.386 2.386 0 0 1-2.375 2.395H75.843a2.386 2.386 0 0 1-2.376-2.395V87.408a2.386 2.386 0 0 1 2.376-2.395zM44.58 85.013h.229l7.356 1.882 7.624-1.882h.229a2.386 2.386 0 0 1 2.35 2.395v14.087a2.386 2.386 0 0 1-2.376 2.395H44.58a2.386 2.386 0 0 1-2.376-2.395V87.408a2.386 2.386 0 0 1 2.376-2.395z"/>
            <path fill="#FFF" d="M90.037 30.899c8.254 0 14.963 5.373 14.963 11.972 0 6.6-6.71 11.973-14.963 11.973a18.68 18.68 0 0 1-2.761-.202L81.83 59.61c-.216.2-.5.31-.795.31a1.16 1.16 0 0 1-.469-.093 1.164 1.164 0 0 1-.702-1.071v-7.112a11.012 11.012 0 0 1-4.79-8.774c0-6.6 6.71-11.972 14.963-11.972z"/>
            <path fill="#FFDC69" d="M83.588 66.975c3.974.007 7.195 3.204 7.201 7.15 0 3.95-3.224 7.15-7.201 7.15-3.977 0-7.202-3.2-7.202-7.15 0-3.949 3.225-7.15 7.202-7.15zM52.325 66.975c3.974.007 7.194 3.204 7.201 7.15 0 3.95-3.224 7.15-7.201 7.15-3.978 0-7.202-3.2-7.202-7.15 0-3.949 3.224-7.15 7.202-7.15z"/>
        </g>
    </g>
</svg>
