<svg width="280" height="280" xmlns="http://www.w3.org/2000/svg" style="vector-effect: non-scaling-stroke;" stroke="null">

 <g stroke="null">
  <title stroke="null">background</title>
  <rect stroke="null" fill="none" id="canvas_background" height="402" width="582" y="-1" x="-1"/>
 </g>
 <g stroke="null">
  <title stroke="null">Layer 1</title>
  <g stroke="null" id="svg_1" fill-rule="evenodd" fill="none">
   <rect stroke="null" x="-156.000006" y="-56" id="svg_2" rx="18" fill="#F6F6F6" height="576.000024" width="576.000024"/>
   <path stroke="#484F59" id="svg_3" d="m75.428575,151.771437c-8.504229,0 -15.428572,-6.920229 -15.428572,-15.420343c0,-8.514515 6.924343,-15.436801 15.428572,-15.436801s15.428572,6.922286 15.428572,15.436801c0,8.500115 -6.924343,15.420343 -15.428572,15.420343" stroke-width="3" fill="#01DEE9"/>
   <path stroke="#484F59" id="svg_4" d="m211.20001,151.771437c-8.504229,0 -15.428572,-6.920229 -15.428572,-15.420343c0,-8.514515 6.924343,-15.436801 15.428572,-15.436801s15.428572,6.922286 15.428572,15.436801c0,8.500115 -6.924343,15.420343 -15.428572,15.420343" stroke-width="3" fill="#D5E962"/>
   <path stroke="#484F59" id="svg_5" d="m90.054862,244.34287l-27.551315,0l-0.150171,-35.255316c-2.460343,-0.2304 -7.117715,-1.143771 -8.292343,-4.778743l-0.078171,-0.466971l-0.154286,-35.234744l0.504,-0.454629c0.370286,-0.329143 9.2304,-8.152457 21.565029,-8.152457c7.276115,0 14.200458,2.736 20.592001,8.125715l0.538971,0.452571l-0.164571,35.094859l-0.123429,0.290057c-0.082286,0.191314 -1.933714,4.352914 -6.685715,4.968l0,35.411659z" stroke-width="3" fill="#01DEE9"/>
   <path stroke="#484F59" id="svg_6" d="m225.826296,244.34287l-27.551315,0l-0.150171,-35.255316c-2.460343,-0.2304 -7.117715,-1.143771 -8.292343,-4.778743l-0.078171,-0.466971l-0.154286,-35.234744l0.504,-0.454629c0.370286,-0.329143 9.2304,-8.152457 21.565029,-8.152457c7.276115,0 14.200458,2.736 20.592001,8.125715l0.538971,0.452571l-0.164571,35.094859l-0.123429,0.290057c-0.082286,0.191314 -1.933714,4.352914 -6.685715,4.968l0,35.411659z" stroke-width="3" fill="#D5E962"/>
   <path stroke="#484F59" id="svg_7" d="m175.086865,38.645033c-0.016457,2.330743 -0.041143,4.937143 -0.078171,7.741029l-0.024686,2.0304l-67.560689,0l-0.026743,-2.0304a1652.934926,1652.934926 0 0 1 -0.082286,-7.741029l-0.016457,-2.0736l67.803431,0l-0.0144,2.0736z" stroke-width="2" fill="#FFDC69"/>
   <path stroke="#484F59" id="svg_8" d="m118.375549,97.734406c-0.318857,-0.0288 -0.637714,-0.061714 -0.958629,-0.102857l0.037029,0.061714c0.308571,0.018514 0.615086,0.030857 0.9216,0.041143zm-13.309715,-47.577602c0.427886,0.131657 0.8496,0.271543 1.263086,0.4176l0.267429,-0.765257c-0.534857,-0.137829 -1.063543,-0.265371 -1.586057,-0.376457l0.0576,0.724114l-0.002057,0zm15.864686,51.802974c-5.430857,0 -11.005715,-1.298057 -16.212344,-4.433143c-11.688686,-7.033372 -20.252572,-19.546972 -20.028344,-38.70103c0.106971,-9.148115 4.523657,-14.025601 12.914743,-14.025601c3.423086,0 6.932572,0.781714 10.092343,1.892572l1.2672,0.4464l0.1008,1.341257c0.0864,1.164343 0.181029,2.324572 0.288,3.4704l0.277714,3.017829l-2.906743,-0.853714c-2.614629,-0.769371 -5.070857,-1.207543 -7.191772,-1.207543c-2.7936,0 -4.760229,0.746743 -5.9904,2.155886c-1.357714,1.559314 -1.872,4.040229 -1.398857,7.483886c0.903086,6.572572 2.7792,12.351086 5.566629,17.183315c2.633143,4.562743 6.010972,8.181257 10.042972,10.769143c3.279086,2.104457 7.060115,3.048686 10.950172,3.126857l1.164343,0.022629l0.580114,1.014171c-0.006171,-0.008229 -0.006171,-0.008229 0,0a9.2448,9.2448 0 0 1 0.032914,0.0576c0.166629,0.292114 0.339429,0.584229 0.5184,0.884571l0.164571,0.267429c0.178971,0.296229 0.341486,0.5616 0.499886,0.8064l0.109029,0.170743l0.012343,0.016457l0.069943,0.106971a40.96183,40.96183 0 0 0 1.104686,1.618971l0.010286,0.0144l0.061714,0.088457l2.306057,3.1968l-3.939429,0.063771l-0.466971,0.004114z" stroke-width="2" fill="#FFDC69"/>
   <path stroke="#484F59" id="svg_9" d="m165.545836,145.600008l0,12.342858l-50.002974,0l0,-12.342858l50.002974,0zm-39.717259,-8.228572l31.406401,0l0,8.228572l-31.406401,0l0,-8.228572z" stroke-width="2" stroke-linejoin="round" fill="#FFDC69"/>
   <path stroke="#484F59" id="svg_10" d="m134.057149,135.314294l0,-12.342858l12.560915,0l0,12.342858l-12.560915,0z" stroke-width="2" fill="#FFDC69"/>
   <path stroke="#484F59" id="svg_11" d="m150.89075,119.054636c0,2.378057 -1.931657,4.311772 -4.309714,4.311772l-12.326401,0a4.313829,4.313829 0 0 1 0,-8.623543l12.326401,0c2.378057,0 4.309714,1.933714 4.309714,4.311772zm7.173257,-19.347429l-0.0576,0.074057c-0.1728,0.222171 -0.3456,0.438171 -0.5184,0.652114l-0.127543,0.156343c-0.191314,0.232457 -0.382629,0.458743 -0.576,0.678857l-0.026743,0.032914c-1.941943,2.215543 -4.062857,3.970286 -6.301029,5.216915a10.355658,10.355658 0 0 0 -5.153143,7.360457l-8.734629,0a10.355658,10.355658 0 0 0 -5.153143,-7.360457c-2.16,-1.203429 -4.114286,-2.810057 -5.877257,-4.731429l-0.425829,-0.485486c-1.730057,-1.974857 -3.363429,-4.367314 -4.848686,-7.109486l-0.456686,-0.843429c-7.488,-14.467886 -9.752915,-35.382859 -10.435886,-46.491431l63.141945,0c-0.0288,0.483429 -0.061714,0.983314 -0.096686,1.501714l-0.006171,0.072c-0.037029,0.5616 -0.078171,1.125257 -0.123429,1.686857l-0.002057,0.051429c-0.139886,1.7856 -0.304457,3.579429 -0.493714,5.350629l-0.113143,1.071771c-1.265143,11.345143 -3.937372,25.796573 -9.573943,36.682973l-0.495771,0.917486a41.657145,41.657145 0 0 1 -3.544457,5.5152z" stroke-width="2" fill="#FFDC69"/>
   <path stroke="#484F59" id="svg_12" d="m166.804808,97.631549c-0.322971,0.041143 -0.645943,0.074057 -0.966857,0.102857c0.308571,-0.008229 0.6192,-0.020571 0.929829,-0.041143l0.037029,-0.061714zm-2.262857,3.449829a1.378286,1.378286 0 0 0 0.012343,-0.020571l-0.016457,0.022629l0.002057,-0.002057l0.002057,0zm0.012343,-0.020571zm14.657143,-51.630174c-0.524571,0.113143 -1.053257,0.238629 -1.588114,0.378514l0.267429,0.765257c0.415543,-0.146057 0.8352,-0.285943 1.263086,-0.4176l0.0576,-0.726171zm-18.041144,49.289145l0.0288,-0.039086c0.213943,-0.294171 0.425829,-0.596571 0.635657,-0.903086l0.0288,-0.041143l0.045257,-0.069943c0.170743,-0.250971 0.343543,-0.514286 0.524571,-0.794057l0.1296,-0.2016c0.216,-0.335314 0.397029,-0.627429 0.569829,-0.913371l0.034971,-0.061714l0.002057,-0.002057l0.045257,-0.076114c0.154286,-0.257143 0.304457,-0.514286 0.450514,-0.769371l0.067886,-0.1152l0.010286,-0.016457l0.030857,-0.055543l0.580114,-1.012114l1.164343,-0.022629c3.888,-0.078171 7.671086,-1.0224 10.950172,-3.126857c4.032,-2.589943 7.407772,-6.2064 10.040915,-10.769143c2.787429,-4.832229 4.6656,-10.610743 5.568686,-17.183315c0.473143,-3.445714 -0.041143,-5.924572 -1.398857,-7.483886c-1.230171,-1.409143 -3.1968,-2.155886 -5.9904,-2.155886c-2.120914,0 -4.5792,0.438171 -7.191772,1.205486l-2.906743,0.855771l0.277714,-3.017829c0.102857,-1.139657 0.197486,-2.266972 0.281829,-3.381943l0.002057,-0.037029l0,-0.016457l0.004114,-0.039086l0.102857,-1.337143l1.265143,-0.4464c3.155657,-1.110857 6.669257,-1.892572 10.090286,-1.892572c8.393143,0 12.807772,4.875429 12.916801,14.025601c0.224229,19.152001 -8.341715,31.667658 -20.028344,38.70103c-5.206629,3.133029 -10.781486,4.433143 -16.212344,4.433143c-0.160457,0 -0.3168,0 -0.466971,-0.004114l-3.918857,-0.063771l2.277257,-3.188572a15.453258,15.453258 0 0 0 -0.012343,0.018514l0,-0.002057z" stroke-width="2" fill="#FFDC69"/>
  </g>
 </g>
</svg>