<svg width="280" height="280" xmlns="http://www.w3.org/2000/svg">

 <g>
  <title>background</title>
  <rect fill="none" id="canvas_background" height="402" width="582" y="-1" x="-1"/>
 </g>
 <g>
  <title>Layer 1</title>
  <g stroke="null" id="svg_1" fill-rule="evenodd" fill="none">
   <rect stroke="null" x="-87.000012" y="-6.999992" id="svg_2" rx="18" fill="#F6F6F6" height="460.000015" width="460.000015"/>
   <path stroke="#484F59" id="svg_3" d="m136.428566,55.428582l85.428574,0l0,78.834145l-28.475644,0l0,31.237287l-56.95293,0l0,-110.071432z" stroke-width="3" stroke-linejoin="round" fill="#FFF"/>
   <path stroke="#484F59" id="svg_4" d="m221.857141,134.285727l-27.928572,31.214287l0,-31.214287l27.928572,0z" stroke-width="3" stroke-linejoin="round" stroke-linecap="round" fill="#D5E962"/>
   <path stroke="#484F59" id="svg_5" d="m151.214281,94.035726l54.214287,0m-54.214287,21.357144l29.829358,0m-29.829358,-41.07143l54.214287,0" stroke-width="3" stroke-linejoin="round" stroke-linecap="round" fill="#FFF"/>
   <path stroke="#484F59" id="svg_6" d="m87.964279,132.64287c-9.507215,0 -17.250001,-7.737857 -17.250001,-17.241786c0,-9.520357 7.742786,-17.258215 17.250001,-17.258215s17.250001,7.7395 17.250001,17.258215c0,9.503929 -7.742786,17.241786 -17.250001,17.241786m17.507929,103.500003l-31.431144,0l-0.1725,-39.142716c-2.806,-0.256286 -8.122286,-1.269929 -9.461215,-5.306429l-0.088714,-0.519143l-0.175786,-39.119716l0.575,-0.504357c0.422214,-0.366357 10.530715,-9.0505 24.603429,-9.0505c8.301357,0 16.198572,3.039286 23.492858,9.019286l0.614429,0.506l-0.187286,38.965287l-0.139643,0.320357c-0.095286,0.213571 -2.206357,4.831643 -7.629429,5.516714l0,39.315216z" stroke-width="3" fill="#01DEE9"/>
   <circle stroke="null" id="svg_7" fill="#F82B2B" r="4.928577" cy="137.571442" cx="154.499996"/>
   <circle stroke="null" id="svg_8" fill="#018800" r="4.928577" cy="137.571442" cx="170.928567"/>
  </g>
 </g>
</svg>