<svg width="280" height="280" xmlns="http://www.w3.org/2000/svg">

 <g>
  <title>background</title>
  <rect fill="none" id="canvas_background" height="402" width="582" y="-1" x="-1"/>
 </g>
 <g>
  <title>Layer 1</title>
  <g stroke="null" id="svg_1" fill-rule="evenodd" fill="none">
   <rect stroke="null" x="-167.999998" y="-44.753601" id="svg_2" rx="18" fill="#F6F6F6" height="590.882172" width="593.000043"/>
   <path stroke="null" id="svg_3" d="m111.849429,157.647903l-8.770047,8.492608a8.174929,8.174929 0 0 0 -2.414357,5.815636a8.185518,8.185518 0 0 0 2.408004,5.838933a0.692539,0.692539 0 0 1 0.099539,0.105893a8.265997,8.265997 0 0 0 11.57409,-0.080479l8.746751,-8.471429a79.241749,79.241749 0 0 1 -5.902468,-5.303115c-0.023296,-0.025414 -0.052946,-0.044475 -0.078361,-0.072007a80.923327,80.923327 0 0 1 -5.66315,-6.32604m-11.057333,22.468348c-0.042357,0 -0.078361,-0.084714 -0.114364,-0.127071a11.391954,11.391954 0 0 1 -3.2615,-8.039386a11.444901,11.444901 0 0 1 3.384336,-8.128336l10.081001,-9.763322a1.628632,1.628632 0 0 1 2.414357,0.180018a77.386506,77.386506 0 0 0 6.523,7.440033a78.047277,78.047277 0 0 0 7.130826,6.273093c0.370625,0.283793 0.597236,0.720071 0.62265,1.192354a1.607454,1.607454 0 0 1 -0.493461,1.255889l-10.055586,9.742144c-4.472915,4.453854 -11.760462,4.4475 -16.231258,-0.025414" fill="#484F59"/>
   <path stroke="#484F59" id="svg_4" d="m115.570504,180.349215a18.342762,18.342762 0 0 1 -5.146393,15.82463l-60.939226,60.84604c-7.103293,7.086351 -18.630791,7.086351 -25.72773,0.012707a1.554507,1.554507 0 0 0 -0.135543,-0.131307c-7.043993,-7.164711 -6.995283,-18.738801 0.1186,-25.844213l60.930754,-60.837569a18.31523,18.31523 0 0 1 15.312108,-5.146393a11.516908,11.516908 0 0 0 -1.054693,4.805418a11.504201,11.504201 0 0 0 2.092443,6.658543c0.042357,0.063536 0.086832,0.1186 0.129189,0.182136a11.563501,11.563501 0 0 0 1.063164,1.272832a2.052204,2.052204 0 0 0 0.114364,0.129189c0.393921,0.398157 0.819611,0.745486 1.258007,1.075872a11.499965,11.499965 0 0 0 1.63075,1.033514c0.078361,0.042357 0.160957,0.074125 0.241436,0.108011c0.402393,0.201196 0.825964,0.372743 1.249536,0.518875c0.116482,0.042357 0.232964,0.084714 0.347329,0.122836c0.465929,0.146132 0.944564,0.260496 1.421082,0.343093c0.14825,0.031768 0.294382,0.048711 0.438396,0.065654c0.4151,0.063536 0.825964,0.091068 1.236829,0.105893c0.114364,0.004236 0.216021,0.016943 0.324032,0.019061c0.491343,0.004236 0.976332,-0.046593 1.459204,-0.101657a11.595269,11.595269 0 0 0 1.914543,-0.396039c0.063536,-0.010589 0.114364,-0.036004 0.169429,-0.055064c0.487107,-0.152486 0.955154,-0.340975 1.418964,-0.56335c0.042357,-0.016943 0.091068,-0.027532 0.133425,-0.048711" stroke-width="3" fill="#66CDE1"/>
   <g stroke="#484F59" id="svg_5" stroke-width="3">
    <path stroke="null" id="svg_6" d="m205.397304,118.24305a105.780618,105.780618 0 0 0 -60.447883,0.512521c-5.697036,1.800179 -10.144536,8.496843 -10.095826,14.215058c0.055064,7.293901 0.103775,12.355579 0.139779,16.745898a58.393561,58.393561 0 0 0 18.692208,12.635137l-0.213904,-26.039055l0.213904,26.039055a57.667136,57.667136 0 0 0 23.014755,4.53645c7.211304,-0.0593 14.200233,-1.4825 20.721116,-4.051461l-0.226611,-26.898906l0.226611,26.898906a57.800561,57.800561 0 0 0 18.488894,-11.741401c-0.038121,-4.881661 -0.08895,-10.35844 -0.160957,-18.81928c-0.055064,-5.726686 -4.608457,-12.330165 -10.352086,-14.032922m-31.100734,-48.632357c-11.351715,0.097421 -20.471209,9.375754 -20.382259,20.725351c0.103775,11.351715 9.382108,20.475444 20.729587,20.373787c11.351715,-0.095304 20.477562,-9.377872 20.382259,-20.721116c-0.095304,-11.351715 -9.377872,-20.473326 -20.729587,-20.378023" fill="#D5E962"/>
    <path stroke="null" id="svg_7" d="m174.224562,165.5581c15.614962,0.031768 30.289595,-6.02954 41.410464,-17.112287c11.110279,-11.072158 17.21818,-25.723495 17.254183,-41.359635c0.025414,-15.650965 -6.063425,-30.348895 -17.182176,-41.473999c-11.050979,-11.055215 -25.685373,-17.139819 -41.283392,-17.180058c-15.627669,-0.027532 -30.300184,6.027422 -41.399874,17.091108c-11.101808,11.067922 -17.207591,25.719259 -17.230887,41.349046c-0.033886,15.663673 6.050718,30.376427 17.182176,41.531182c11.044626,11.042508 25.662077,17.118641 41.249507,17.154644zm-79.610256,-58.723947c0.031768,-21.244227 8.380361,-41.279157 23.459505,-56.30959c15.074908,-15.028315 35.13737,-23.30702 56.396422,-23.271016c21.206105,0.055064 41.205032,8.37189 56.214286,23.38538c15.093969,15.100323 23.417148,35.19667 23.383262,56.489608c-0.048711,21.256934 -8.399422,41.28551 -23.482802,56.320179c-15.096087,15.04314 -35.162785,23.330316 -56.407011,23.287959c-21.19128,-0.048711 -41.177499,-8.359183 -56.182518,-23.359966c-15.108794,-15.140562 -23.42562,-35.251735 -23.381145,-56.542554z" fill-rule="nonzero" fill="#FFF"/>
   </g>
  </g>
 </g>
</svg>