<svg xmlns="http://www.w3.org/2000/svg" width="434" height="332" viewBox="0 0 434 332">
    <g fill="none" fill-rule="evenodd">
        <rect width="434" height="332" fill="#F6F6F6" rx="18"/>
        <path fill="#FFE0B2" fill-rule="nonzero" d="M266.5 145.5l-24 17.5c-1.798.981-2.446 1.884-4.574 1.893h-35.378c-10.542 0-13.397-4.663-13.397-4.663v-.499h-5.99v-20.645h5.99v.12c3.494-4.593 10.402-6.176 14.754-6.71 2.334.442 4.778.193 6.595 1.504 2.619 1.922 5.657 4.146 9.098 4.157h8.625c2.94.014 5.646 1.387 7.087 3.596h-.639c1.377 2.077 1.842 4.886 0 6.675h3.774a7.016 7.016 0 0 0 2.076-.293l26.837-9.035c.149.126.283.264.4.413.762.936 1.058 2.095.821 3.22-.236 1.124-.985 2.12-2.079 2.767z"/>
        <path fill="#01DEE9" fill-rule="nonzero" d="M270.903 94.355a29.245 29.245 0 0 1-29.247 29.247 28.955 28.955 0 0 1-8.929-1.394l-8.275 6.555v-10.77c-11.161-8.123-15.121-22.946-9.498-35.554 5.622-12.607 19.296-19.566 32.798-16.69 13.502 2.875 23.153 14.801 23.151 28.606z"/>
        <path fill="#D5E962" fill-rule="nonzero" d="M172.839 135.645h13.763c.95 0 1.72.77 1.72 1.72v24.087c0 .95-.77 1.72-1.72 1.72H172.84c-.95 0-1.72-.77-1.72-1.72v-24.086c0-.95.77-1.72 1.72-1.72z"/>
        <g fill="#484F59" fill-rule="nonzero">
            <path d="M172.438 164.086h13.706a3.407 3.407 0 0 0 2.634-1.261 17.194 17.194 0 0 0 10.57 2.974h37.214a11.426 11.426 0 0 0 6.088-1.782l26.527-17a5.83 5.83 0 0 0 2.523-3.793 6.017 6.017 0 0 0-.989-4.6 5.55 5.55 0 0 0-6.298-2.035l-26.202 9.193a3.517 3.517 0 0 1-1.193.198h-.408a7.281 7.281 0 0 0-.667-5.547l-.134-.242a8.77 8.77 0 0 0-7.563-4.442h-7.402a10.902 10.902 0 0 1-6.966-2.579 14.345 14.345 0 0 0-9.162-3.35h-.868c-.431 0-9.215.08-14.884 4.913a3.424 3.424 0 0 0-2.82-1.487h-13.706a3.43 3.43 0 0 0-3.427 3.427v23.986a3.43 3.43 0 0 0 3.427 3.427zm31.41-30.84h.868c2.549.012 5.013.916 6.966 2.554a14.33 14.33 0 0 0 9.162 3.376h7.402a5.25 5.25 0 0 1 4.571 2.686l.134.243a3.822 3.822 0 0 1-.086 3.875h-8.434c-2.88.008-5.69.904-8.043 2.566l-1.027.722a1.713 1.713 0 0 0 1.968 2.804l1.024-.718a10.597 10.597 0 0 1 6.078-1.948h12.588c.8.004 1.595-.13 2.349-.398l26.163-9.18c.884-.3 1.86.022 2.393.789.398.57.546 1.278.411 1.96-.11.637-.476 1.2-1.014 1.558l-26.508 16.989a7.99 7.99 0 0 1-4.251 1.249h-37.213c-6.55 0-9.1-2.576-9.778-3.451v-19.878c4.184-5.707 14.176-5.798 14.277-5.798zm-31.41 3.427h13.706v23.986h-13.706v-23.986z"/>
            <path d="M176.361 152.59a1.713 1.713 0 0 0 1.217 2.93 1.806 1.806 0 0 0 1.216-.498 1.98 1.98 0 0 0 .36-.565c.088-.206.134-.427.137-.651a1.803 1.803 0 0 0-.497-1.217 1.794 1.794 0 0 0-2.433 0zM240.97 63a30.832 30.832 0 0 0-18.846 55.24v9.866a1.713 1.713 0 0 0 2.777 1.343l7.536-5.97A30.842 30.842 0 1 0 240.97 63zm0 58.253a27.182 27.182 0 0 1-8.366-1.305 1.723 1.723 0 0 0-1.59.288l-5.464 4.327v-7.182c0-.549-.263-1.065-.707-1.387-10.889-7.938-14.39-22.614-8.257-34.613 6.134-11.998 20.08-17.756 32.892-13.578 12.81 4.177 20.683 17.05 18.565 30.357-2.118 13.307-13.598 23.1-27.073 23.093z"/>
        </g>
        <circle cx="242.5" cy="78.5" r="3.5" fill="#FFF" fill-rule="nonzero" stroke="#484F59" stroke-width="3"/>
        <path fill="#FFF" fill-rule="nonzero" stroke="#484F59" stroke-linejoin="round" stroke-width="3" d="M239.25 95.286v9.428H236V111h13v-6.286h-3.25V89H236v6.286z"/>
    </g>
</svg>
