<svg width="463" height="462" xmlns="http://www.w3.org/2000/svg" style="vector-effect: non-scaling-stroke;" stroke="null">

 <g stroke="null">
  <title stroke="null">background</title>
  <rect stroke="null" fill="none" id="canvas_background" height="464" width="465" y="-1" x="-1"/>
 </g>
 <g stroke="null">
  <title stroke="null">Layer 1</title>
  <g stroke="null" id="svg_1" fill-rule="evenodd" fill="none">
   <rect stroke="null" x="-280.002692" y="-26.139184" id="svg_2" rx="18" fill="#F6F6F6" height="749.484038" width="1042.956704"/>
   <path stroke="#484F59" id="svg_3" d="m190.682315,113.851793c-0.033862,4.086042 -0.083527,8.652929 -0.151251,13.562952l-0.04515,3.341073l-128.274645,0l-0.04515,-3.338816c-0.069982,-4.914538 -0.124162,-9.490455 -0.158024,-13.562952l-0.031605,-3.41557l128.732914,0l-0.02709,3.413313z" stroke-width="3" fill="#FFDC69"/>
   <path stroke="#484F59" id="svg_4" d="m63.464171,135.602632c0.699819,0.223491 1.392866,0.453754 2.076883,0.695304l0.099329,-0.284443a74.79941,74.79941 0 0 0 -2.1875,-0.535023l0.011287,0.124162zm30.430858,101.254842c-10.517609,0 -21.31063,-2.517092 -31.390288,-8.585204c-8.664216,-5.219298 -17.156864,-12.754774 -24.121196,-22.938275c-9.625903,-14.073143 -14.989681,-31.42415 -14.745873,-52.269739c0.203173,-17.57224 8.573917,-26.823402 24.626872,-26.823402c6.60765,0 13.413958,1.512513 19.52722,3.670666l2.088171,0.735939l0.164796,2.20556c0.169311,2.280057 0.356682,4.553341 0.564371,6.806308l0.458269,4.96646l-4.785862,-1.406411c-5.169634,-1.521543 -10.029993,-2.388416 -14.246969,-2.388416c-5.636933,0 -9.662023,1.526058 -12.197175,4.43821c-2.799278,3.212397 -3.839977,8.248839 -2.891834,15.161249c1.776638,12.944402 5.474394,24.335656 10.971363,33.871261c5.203496,9.020898 11.878871,16.177116 19.852297,21.299343c6.524123,4.194402 14.034766,6.068112 21.750839,6.223878l1.91886,0.038377l0.954915,1.670537a0.386029,0.386029 0 0 1 0.004515,0.006772l0.004515,0.006772l0.056437,0.097072a92.39874,92.39874 0 0 0 2.548697,4.203432l0.022575,0.031605l0.135449,0.209946a80.83366,80.83366 0 0 0 2.009159,2.950529l0.162539,0.232521l0.022575,0.031605l0.126419,0.180599l3.79257,5.259933l-6.483488,0.106102c-0.293473,0.004515 -0.593718,0.006772 -0.902993,0.006772l0.002257,0zm22.292635,60.952015l0,-22.57482l22.57482,0l0,22.57482l-22.57482,0z" stroke-width="3" fill="#FFDC69"/>
   <path stroke="#484F59" id="svg_5" d="m174.87994,311.354382l0,22.57482l-94.814246,0l0,-22.57482l94.814246,0zm-76.754389,-15.802374l58.694533,0l0,15.802374l-58.694533,0l0,-15.802374z" stroke-width="3" stroke-linejoin="round" fill="#FFDC69"/>
   <path stroke="#484F59" id="svg_6" d="m159.400386,231.094123l-0.112874,0.144479c-0.329592,0.424407 -0.6637,0.839783 -0.997807,1.250645l-0.248323,0.300245c-0.36797,0.444724 -0.738197,0.880418 -1.110681,1.304825l-0.05418,0.060952c-3.74742,4.255354 -7.840235,7.623517 -12.163313,10.016448a19.883902,19.883902 0 0 0 -9.948723,14.131838l-16.863391,0a19.883902,19.883902 0 0 0 -9.950981,-14.131838c-4.171827,-2.309404 -7.939564,-5.395382 -11.343847,-9.08185l-0.821723,-0.93234c-3.341073,-3.79257 -6.492518,-8.386546 -9.364036,-13.653251l-0.880418,-1.6141c-14.456915,-27.780574 -18.8274,-67.934407 -20.148027,-89.263097l121.90403,0c-0.056437,0.927825 -0.117389,1.884998 -0.185114,2.880547l-0.011287,0.139964c-0.072239,1.079076 -0.153509,2.16041 -0.237036,3.241744l-0.006772,0.097072c-0.270898,3.429115 -0.586945,6.871775 -0.9504,10.271543l-0.221233,2.058824c-2.442596,21.780187 -7.600942,49.526899 -18.482005,70.426667l-0.95943,1.760836c-2.137835,3.921246 -4.431437,7.467751 -6.842428,10.589848z" stroke-width="3" fill="#FFDC69"/>
   <path stroke="#484F59" id="svg_7" d="m147.790156,265.076c0,4.363713 -3.553277,7.901187 -7.919247,7.901187l-24.796183,0a7.914732,7.914732 0 0 1 -7.919247,-7.901187c0,-4.363713 3.553277,-7.901187 7.919247,-7.901187l24.796183,0a7.914732,7.914732 0 0 1 7.919247,7.901187zm17.450336,-29.672344a1.982069,1.982069 0 0 0 0.01806,-0.02709l-0.024832,0.03612l0.004515,-0.00903l0.002257,0zm28.509741,-99.925185c-0.726909,0.164796 -1.456076,0.343137 -2.189758,0.535023l0.099329,0.284443c0.684017,-0.241551 1.377064,-0.474071 2.076883,-0.695304l0.011287,-0.124162l0.002257,0zm-34.051859,96.026514l0.033862,-0.04515c0.422149,-0.584688 0.839783,-1.178406 1.252903,-1.783411l0.060952,-0.090299l0.090299,-0.130934c0.334107,-0.496646 0.677245,-1.011352 1.031669,-1.564435l0.257353,-0.399574c0.422149,-0.6637 0.778831,-1.2371 1.117454,-1.799213l0.076754,-0.126419l0.004515,-0.00903l0.083527,-0.144479c0.302503,-0.503418 0.598233,-1.009094 0.88719,-1.51477l0.126419,-0.216718l0.022575,-0.033862l0.067724,-0.115132l0.9504,-1.666022l1.91886,-0.040635c7.718331,-0.153509 15.226716,-2.029476 21.753097,-6.221621c7.971169,-5.124484 14.648801,-12.280702 19.85004,-21.301601c5.496969,-9.533347 9.194724,-20.926859 10.971363,-33.871261c0.948142,-6.91241 -0.094814,-11.95111 -2.889577,-15.161249c-2.53741,-2.912152 -6.5625,-4.440467 -12.197175,-4.440467c-4.219234,0 -9.084108,0.869131 -14.249227,2.388416l-4.785862,1.408669l0.458269,-4.96646c0.207688,-2.234907 0.390544,-4.44724 0.553083,-6.632482l0.004515,-0.069982l0.002257,-0.031605l0.006772,-0.079012l0.167054,-2.201045l2.083656,-0.733682c6.113261,-2.155895 12.91957,-3.670666 19.52722,-3.670666c16.050697,0 24.421441,9.251161 24.629129,26.823402c0.241551,20.847847 -5.124484,38.196596 -14.74813,52.267482c-6.964332,10.185759 -15.45698,17.721234 -24.121196,22.940533c-10.0774,6.070369 -20.870421,8.585204 -31.385773,8.585204l-0.002257,0c-0.309275,0 -0.60952,-0.002257 -0.902993,-0.006772l-6.445111,-0.106102l3.73839,-5.237358l0,-0.002257z" stroke-width="3" fill="#FFDC69"/>
   <path stroke="#484F59" id="svg_8" d="m406.195095,323.104576c-2.449368,1.934662 -5.63919,2.765416 -7.959882,0.893963a3.661636,3.661636 0 0 1 -0.814951,-0.724652c-2.941499,-2.548697 -12.619325,-12.63287 -22.529671,-23.290442c-0.158024,-0.167054 -0.365712,-0.173826 -0.528251,-0.00903a0.625323,0.625323 0 0 0 -0.013545,0.837526a1193.03411,1193.03411 0 0 0 9.345976,9.944208c5.431502,5.715945 9.725233,10.11352 12.174601,12.409379l1.444789,1.354489l-0.474071,1.925632c-0.62758,2.54644 -2.431308,4.327593 -4.496904,5.395382c-3.356876,1.738261 -7.422601,1.738261 -9.713945,-0.30476l-0.176084,-0.124162l-0.293473,-0.316047c0.088042,0.092557 0.194143,0.196401 0.316047,0.293473c-3.799342,-3.12887 -12.813468,-12.650929 -19.014771,-19.603974c-0.153509,-0.173826 -0.365712,-0.182856 -0.528251,-0.031605a0.632095,0.632095 0 0 0 -0.03612,0.839783c1.173891,1.30934 3.76548,4.151509 6.472201,7.047859c4.454012,4.767802 8.296247,8.700336 10.980393,11.170021l1.618615,1.489938l-0.704334,2.085913c-0.916538,2.720266 -2.821853,4.96646 -5.305083,6.095202c-2.686404,1.230328 -5.799471,1.002322 -8.668731,-1.185178l-0.178341,-0.144479c-2.532895,-2.216847 -6.25774,-5.955238 -10.783992,-10.738842a568.050207,568.050207 0 0 1 -8.126935,-8.774833c-0.146736,-0.164796 -0.361197,-0.171569 -0.519221,-0.01806a0.632095,0.632095 0 0 0 -0.024832,0.844298c5.257676,5.801729 11.219686,12.149768 15.74368,16.554116l5.045472,4.910023l-6.984649,0.875903a19.364681,19.364681 0 0 1 -2.381644,0.153509c-3.11984,0 -8.075013,-1.778896 -10.95556,-3.731618c-4.426922,-3.002451 -22.247486,-17.104941 -34.268577,-27.482586c-1.756321,-1.521543 -4.837784,-3.946079 -11.632805,-9.210527a699.390512,699.390512 0 0 1 -6.413506,-4.995808l-1.912087,-1.517028l15.881386,-43.673248l2.257482,-0.101587c3.070176,-0.137706 6.519608,-0.417634 13.718718,-1.072304c3.523929,-0.320562 6.244195,-0.557598 8.781605,-0.760771l8.78612,-0.704334l-6.052309,6.404477c-5.937178,6.282573 -9.621388,12.748001 -9.057018,17.870228c0.27767,2.490003 1.571208,4.519479 3.873839,6.002645c4.537539,2.927954 14.190532,0.221233 18.820628,-5.64822l0.830753,-1.054244l1.329657,-0.196401c2.889577,-0.431179 4.930341,-1.126484 7.607714,-2.496775l2.158153,-1.101651l1.740519,1.686339c3.661636,3.548762 7.359391,6.776961 16.587978,14.619454c17.698659,15.03483 24.403381,21.267738 27.421634,26.706013c1.361262,2.451625 1.386094,4.98452 0.336365,7.223943a9.350491,9.350491 0 0 1 -2.724781,3.379451z" stroke-width="3" fill="#FFE0B2"/>
   <path stroke="#484F59" id="svg_9" d="m407.806937,307.701776c-3.905444,-5.368292 -10.197046,-11.149704 -25.678858,-24.258902c-10.39119,-8.801922 -14.418538,-12.337139 -18.057599,-16.077787c-0.106102,-0.106102 -0.239293,-0.126419 -0.34088,-0.072239c-4.801664,2.643511 -6.704722,3.350103 -11.079722,3.799342a0.338622,0.338622 0 0 0 -0.248323,0.173826c-3.605199,5.880741 -13.709688,9.43176 -18.346557,6.456399c-2.122033,-1.365777 -3.140158,-3.097265 -3.361391,-5.106424c-0.503418,-4.560114 3.1379,-10.962333 9.11797,-17.111714c14.154412,-14.549472 25.14835,-17.628677 38.833206,-10.375387c9.131515,4.837784 18.700981,8.348169 27.143964,10.653058l1.92789,0.525993l0.469556,1.943692c0.03612,0.148994 0.063209,0.266383 0.112874,0.496646l0.006772,0.022575c0.110617,0.492131 0.158024,0.674987 0.214461,0.835268l15.459237,42.361651l-14.391448,8.183372l-1.781153,-2.449368z" stroke-width="3" fill="#FFE0B2"/>
   <path stroke="#484F59" id="svg_10" d="m430.941613,303.453195c-2.993421,0 -5.71143,-1.941435 -6.763416,-4.835527l-15.186082,-41.785993a7.616744,7.616744 0 0 1 0.203173,-5.734004a7.269092,7.269092 0 0 1 4.090557,-3.882869l24.590752,-9.228587l0,65.466979l-6.934985,0zm-136.336113,-9.684598c-1.133256,3.09275 -4.058953,5.169634 -7.282637,5.169634l-7.470008,0l0,-69.981943l26.480264,9.865197a7.7996,7.7996 0 0 1 4.406605,4.151509c0.875903,1.943692 0.952657,4.122162 0.218976,6.124549l-16.3532,44.671055z" stroke-width="3" fill="#01DEE9"/>
   <path stroke="#0689F8" id="svg_11" d="m252.763071,143.17197l103.844174,0l0,72.239425" stroke-width="3" stroke-linejoin="round"/>
   <path stroke="#0689F8" id="svg_12" d="m349.834799,191.030589l6.772446,24.380806l6.772446,-24.380806" stroke-width="3" stroke-linejoin="round"/>
  </g>
 </g>
</svg>