<svg width="333" height="332" xmlns="http://www.w3.org/2000/svg">

 <g>
  <title>background</title>
  <rect fill="none" id="canvas_background" height="334" width="335" y="-1" x="-1"/>
 </g>
 <g>
  <title>Layer 1</title>
  <g stroke="null" id="svg_1" fill-rule="evenodd" fill="none">
   <rect stroke="null" x="-235" y="-43.092166" id="svg_2" rx="18" fill="#F6F6F6" height="592.092166" width="774"/>
   <path stroke="null" id="svg_3" d="m240.278802,216.394009l-42.801843,31.209677c-3.206571,1.749525 -4.362221,3.359945 -8.157318,3.375995l-63.093484,0c-18.80071,0 -23.892346,-8.316041 -23.892346,-8.316041l0,-0.889922l-10.682627,0l0,-36.818502l10.682627,0l0,0.214009c6.231235,-8.191203 18.551032,-11.014341 26.312433,-11.966682c4.162479,0.788267 8.521134,0.344198 11.76159,2.682249c4.670751,3.427714 10.088751,7.394018 16.225465,7.413636l15.381912,0c5.243226,0.024968 10.069134,2.47359 12.639028,6.413143l-1.139599,0c2.455756,3.704143 3.285041,8.713742 0,11.904263l6.73059,0a12.512406,12.512406 0 0 0 3.702359,-0.522539l47.861378,-16.113111c0.265728,0.22471 0.504705,0.47082 0.713364,0.736548c1.358959,1.669272 1.886848,3.736244 1.46418,5.742581c-0.420885,2.004553 -1.756659,3.780829 -3.70771,4.934696z" fill-rule="nonzero" fill="#FFE0B2"/>
   <path stroke="null" id="svg_4" d="m248.131157,125.181498a52.155829,52.155829 0 0 1 -52.159396,52.159396a51.638641,51.638641 0 0 1 -15.924069,-2.486074l-14.757719,11.690253l0,-19.207327c-19.904641,-14.486641 -26.966945,-40.922129 -16.938829,-63.407364c10.026332,-22.483452 34.412682,-34.894203 58.492286,-29.765115c24.079604,5.127304 41.291295,26.396253 41.287728,51.01623z" fill-rule="nonzero" fill="#01DEE9"/>
   <path stroke="null" id="svg_5" d="m73.242825,198.818502l24.545074,0c1.69424,0 3.067465,1.373226 3.067465,3.067465l0,42.957c0,1.69424 -1.373226,3.067465 -3.067465,3.067465l-24.54329,0c-1.69424,0 -3.067465,-1.373226 -3.067465,-3.067465l0,-42.955217c0,-1.69424 1.373226,-3.067465 3.067465,-3.067465l-0.001783,-0.001783z" fill-rule="nonzero" fill="#D5E962"/>
   <g stroke="null" id="svg_6" fill-rule="nonzero" fill="#484F59">
    <path stroke="null" id="svg_7" d="m72.527677,249.54047l24.443419,0a6.076078,6.076078 0 0 0 4.697502,-2.24888a30.663954,30.663954 0 0 0 18.850645,5.303862l66.367825,0a20.377244,20.377244 0 0 0 10.857401,-3.178037l47.308521,-30.317972a10.397281,10.397281 0 0 0 4.499544,-6.764475a10.730779,10.730779 0 0 0 -1.763793,-8.203687a9.897926,9.897926 0 0 0 -11.231917,-3.62924l-46.728912,16.394889a6.272253,6.272253 0 0 1 -2.127608,0.353115l-0.727631,0a12.985009,12.985009 0 0 0 -1.189535,-9.892576l-0.238977,-0.431585a15.640507,15.640507 0 0 0 -13.487931,-7.921908l-13.200802,0a19.442737,19.442737 0 0 1 -12.423235,-4.599415a25.583018,25.583018 0 0 0 -16.339604,-5.974424l-1.548,0c-0.76865,0 -16.434124,0.142673 -26.544276,8.761894a6.106396,6.106396 0 0 0 -5.029217,-2.651931l-24.443419,0a6.117097,6.117097 0 0 0 -6.111747,6.111747l0,42.776876a6.117097,6.117097 0 0 0 6.111747,6.111747zm56.016912,-55.000369l1.548,0c4.545912,0.021401 8.940235,1.633604 12.423235,4.554829a25.556267,25.556267 0 0 0 16.339604,6.020793l13.200802,0a9.362903,9.362903 0 0 1 8.151968,4.79024l0.238977,0.433369a6.816194,6.816194 0 0 1 -0.153373,6.910714l-15.041281,0c-5.136221,0.014267 -10.147604,1.612203 -14.343968,4.57623l-1.831562,1.287622a3.054982,3.054982 0 0 0 3.509751,5.000682l1.826212,-1.280488a18.898797,18.898797 0 0 1 10.839567,-3.474083l22.449567,0c1.426728,0.007134 2.844539,-0.231843 4.18923,-0.709797l46.659359,-16.371705c1.576535,-0.535023 3.317143,0.039235 4.2677,1.407111c0.709797,1.016544 0.973742,2.279198 0.732982,3.495484c-0.196175,1.136032 -0.848903,2.140092 -1.808378,2.778553l-47.274636,30.298355a14.249447,14.249447 0 0 1 -7.581276,2.227479l-66.366041,0c-11.681336,0 -16.229032,-4.594065 -17.438184,-6.154548l0,-35.450627c7.461788,-10.177922 25.281622,-10.340212 25.461747,-10.340212zm-56.016912,6.111747l24.443419,0l0,42.776876l-24.443419,0l0,-42.776876z"/>
    <path stroke="null" id="svg_8" d="m79.523995,229.038387a3.054982,3.054982 0 0 0 2.17041,5.225392a3.220839,3.220839 0 0 0 2.168627,-0.888138a3.531152,3.531152 0 0 0 0.642028,-1.007627c0.15694,-0.367382 0.238977,-0.761516 0.244327,-1.161a3.215488,3.215488 0 0 0 -0.886355,-2.17041a3.199438,3.199438 0 0 0 -4.339037,0l0,0.001783zm115.224346,-159.775714a54.986101,54.986101 0 0 0 -33.610147,98.515576l0,17.595124a3.054982,3.054982 0 0 0 4.95253,2.39512l13.439779,-10.646959a55.003935,55.003935 0 1 0 15.217839,-107.858862zm0,103.888991a48.476654,48.476654 0 0 1 -14.920009,-2.32735a3.072816,3.072816 0 0 0 -2.835622,0.513622l-9.744553,7.716816l0,-12.808452c0,-0.979092 -0.469037,-1.899332 -1.260871,-2.47359c-19.419553,-14.15671 -25.663272,-40.330037 -14.725618,-61.729175c10.939438,-21.397355 35.810876,-31.66623 58.659926,-24.215143c22.845484,7.449304 36.886272,30.407143 33.109009,54.138982c-3.777263,23.731839 -24.250811,41.196774 -48.282263,41.18429z"/>
   </g>
   <circle stroke="#484F59" id="svg_9" stroke-width="3" fill-rule="nonzero" fill="#FFF" r="6.241932" cy="96.90553" cx="197.476958"/>
   <path stroke="#484F59" id="svg_10" d="m191.680875,126.841853l0,16.813991l-5.796083,0l0,11.210516l23.184332,0l0,-11.210516l-5.796083,0l0,-28.024507l-17.388249,0l0,11.210516l5.796083,0z" stroke-width="3" stroke-linejoin="round" fill-rule="nonzero" fill="#FFF"/>
  </g>
 </g>
</svg>