<svg xmlns="http://www.w3.org/2000/svg" width="462" height="332" viewBox="0 0 462 332">
    <g fill="none" fill-rule="evenodd">
        <rect width="462" height="332" fill="#F6F6F6" rx="18"/>
        <path fill="#FFDC69" stroke="#484F59" stroke-width="3" d="M208.5 62.012c-.015 1.81-.037 3.833-.067 6.008l-.02 1.48h-56.822l-.02-1.479c-.031-2.177-.055-4.204-.07-6.008l-.014-1.513h57.025l-.012 1.512z"/>
        <path fill="#FFDC69" stroke="#484F59" stroke-width="3" d="M152.146 71.647c.31.099.617.201.92.308l.044-.126a33.134 33.134 0 0 0-.969-.237l.005.055zm13.48 44.853c-4.659 0-9.44-1.115-13.905-3.803-3.838-2.312-7.6-5.65-10.685-10.161-4.264-6.234-6.64-13.92-6.532-23.154.09-7.784 3.798-11.882 10.909-11.882 2.927 0 5.942.67 8.65 1.626l.925.326.073.977c.075 1.01.158 2.017.25 3.015l.203 2.2-2.12-.623c-2.29-.674-4.443-1.058-6.311-1.058-2.497 0-4.28.676-5.403 1.966-1.24 1.423-1.701 3.654-1.281 6.716.787 5.734 2.425 10.78 4.86 15.004 2.305 3.996 5.262 7.166 8.794 9.435 2.89 1.858 6.217 2.688 9.635 2.757l.85.017.423.74a.171.171 0 0 1 .002.003l.002.003.025.043a40.93 40.93 0 0 0 1.129 1.862l.01.014.06.093a35.807 35.807 0 0 0 .89 1.307l.072.103.01.014.056.08 1.68 2.33-2.872.047c-.13.002-.263.003-.4.003zM175.5 143.5v-10h10v10h-10z"/>
        <path fill="#FFDC69" stroke="#484F59" stroke-linejoin="round" stroke-width="3" d="M201.5 149.5v10h-42v-10h42zM167.5 142.5h26v7h-26v-7z"/>
        <path fill="#FFDC69" stroke="#484F59" stroke-width="3" d="M194.643 113.947l-.05.064c-.146.188-.294.372-.442.554l-.11.133c-.163.197-.327.39-.492.578l-.024.027c-1.66 1.885-3.473 3.377-5.388 4.437a8.808 8.808 0 0 0-4.407 6.26h-7.47a8.808 8.808 0 0 0-4.408-6.26c-1.848-1.023-3.517-2.39-5.025-4.023l-.364-.413c-1.48-1.68-2.876-3.715-4.148-6.048l-.39-.715C155.521 96.235 153.585 78.448 153 69h54c-.025.411-.052.835-.082 1.276l-.005.062c-.032.478-.068.957-.105 1.436l-.003.043c-.12 1.519-.26 3.044-.421 4.55l-.098.912c-1.082 9.648-3.367 21.939-8.187 31.197l-.425.78c-.947 1.737-1.963 3.308-3.031 4.691z"/>
        <path fill="#FFDC69" stroke="#484F59" stroke-width="3" d="M189.5 129c0 1.933-1.574 3.5-3.508 3.5h-10.984a3.506 3.506 0 0 1-3.508-3.5c0-1.933 1.574-3.5 3.508-3.5h10.984a3.506 3.506 0 0 1 3.508 3.5zM197.23 115.856a.878.878 0 0 0 .008-.012l-.011.016.002-.004zm12.63-44.264c-.322.073-.645.152-.97.237l.044.126c.303-.107.61-.21.92-.308l.005-.055zm-15.084 42.537l.015-.02c.187-.259.372-.522.555-.79l.027-.04.04-.058c.148-.22.3-.448.457-.693l.114-.177c.187-.294.345-.548.495-.797l.034-.056.002-.004.037-.064c.134-.223.265-.447.393-.671l.056-.096.01-.015.03-.051.421-.738.85-.018c3.419-.068 6.745-.899 9.636-2.756 3.531-2.27 6.489-5.44 8.793-9.436 2.435-4.223 4.073-9.27 4.86-15.004.42-3.062-.042-5.294-1.28-6.716-1.124-1.29-2.907-1.967-5.403-1.967-1.869 0-4.024.385-6.312 1.058l-2.12.624.203-2.2c.092-.99.173-1.97.245-2.938l.002-.031.001-.014.003-.035.074-.975.923-.325c2.708-.955 5.723-1.626 8.65-1.626 7.11 0 10.818 4.098 10.91 11.882.107 9.235-2.27 16.92-6.533 23.153-3.085 4.512-6.847 7.85-10.685 10.162-4.464 2.689-9.245 3.803-13.903 3.803h-.001c-.137 0-.27-.001-.4-.003l-2.855-.047 1.656-2.32z"/>
        <path fill="#FFE0B2" stroke="#484F59" stroke-width="3" d="M303.966 154.705c-1.085.857-2.498 1.225-3.526.396a1.622 1.622 0 0 1-.361-.321c-1.303-1.129-5.59-5.596-9.98-10.317-.07-.074-.162-.077-.234-.004a.277.277 0 0 0-.006.371 528.48 528.48 0 0 0 4.14 4.405c2.406 2.532 4.308 4.48 5.393 5.497l.64.6-.21.853c-.278 1.128-1.077 1.917-1.992 2.39-1.487.77-3.288.77-4.303-.135l-.078-.055-.13-.14c.039.041.086.087.14.13-1.683-1.386-5.676-5.604-8.423-8.684-.068-.077-.162-.081-.234-.014a.28.28 0 0 0-.016.372c.52.58 1.668 1.839 2.867 3.122 1.973 2.112 3.675 3.854 4.864 4.948l.717.66-.312.924c-.406 1.205-1.25 2.2-2.35 2.7-1.19.545-2.569.444-3.84-.525l-.079-.064c-1.122-.982-2.772-2.638-4.777-4.757a251.63 251.63 0 0 1-3.6-3.887c-.065-.073-.16-.076-.23-.008a.28.28 0 0 0-.011.374c2.329 2.57 4.97 5.382 6.974 7.333l2.235 2.175-3.094.388a8.578 8.578 0 0 1-1.055.068c-1.382 0-3.577-.788-4.853-1.653-1.961-1.33-9.855-7.577-15.18-12.174-.778-.674-2.143-1.748-5.153-4.08a309.81 309.81 0 0 1-2.841-2.213l-.847-.672 7.035-19.346 1-.045c1.36-.061 2.888-.185 6.077-.475 1.561-.142 2.766-.247 3.89-.337l3.892-.312-2.681 2.837c-2.63 2.783-4.262 5.647-4.012 7.916.123 1.103.696 2.002 1.716 2.659 2.01 1.297 6.286.098 8.337-2.502l.368-.467.589-.087c1.28-.191 2.184-.499 3.37-1.106l.956-.488.771.747c1.622 1.572 3.26 3.002 7.348 6.476 7.84 6.66 10.81 9.421 12.147 11.83.603 1.086.614 2.208.149 3.2a4.142 4.142 0 0 1-1.207 1.497z"/>
        <path fill="#FFE0B2" stroke="#484F59" stroke-width="3" d="M304.68 147.882c-1.73-2.378-4.517-4.939-11.375-10.746-4.603-3.899-6.387-5.465-7.999-7.122-.047-.047-.106-.056-.151-.032-2.127 1.171-2.97 1.484-4.908 1.683a.15.15 0 0 0-.11.077c-1.597 2.605-6.073 4.178-8.127 2.86-.94-.605-1.391-1.372-1.489-2.262-.223-2.02 1.39-4.856 4.039-7.58 6.27-6.445 11.14-7.809 17.202-4.596 4.045 2.143 8.284 3.698 12.024 4.719l.854.233.208.861c.016.066.028.118.05.22l.003.01c.049.218.07.299.095.37l6.848 18.765-6.375 3.625-.789-1.085z"/>
        <path fill="#01DEE9" stroke="#484F59" stroke-width="3" d="M314.928 146c-1.326 0-2.53-.86-2.996-2.142l-6.727-18.51a3.374 3.374 0 0 1 .09-2.54 3.22 3.22 0 0 1 1.812-1.72L318 117v29h-3.072zM254.535 141.71c-.502 1.37-1.798 2.29-3.226 2.29H248v-31l11.73 4.37a3.455 3.455 0 0 1 1.952 1.839c.388.861.422 1.826.097 2.713l-7.244 19.788z"/>
        <path stroke="#0689F8" stroke-linejoin="round" stroke-width="3" d="M236 75h46v32"/>
        <path stroke="#0689F8" stroke-linejoin="round" stroke-width="3" d="M279 96.2l3 10.8 3-10.8"/>
    </g>
</svg>
