<svg xmlns="http://www.w3.org/2000/svg" width="280" height="280" viewBox="0 0 280 280">
    <g fill="none" fill-rule="evenodd">
        <rect width="280" height="280" fill="#F6F6F6" rx="18"/>
        <path fill="#01DEE9" stroke="#484F59" stroke-width="3" d="M112.5 101c-4.134 0-7.5-3.364-7.5-7.496 0-4.139 3.366-7.504 7.5-7.504s7.5 3.365 7.5 7.504c0 4.132-3.366 7.496-7.5 7.496"/>
        <path fill="#D5E962" stroke="#484F59" stroke-width="3" d="M178.5 101c-4.134 0-7.5-3.364-7.5-7.496 0-4.139 3.366-7.504 7.5-7.504s7.5 3.365 7.5 7.504c0 4.132-3.366 7.496-7.5 7.496"/>
        <path fill="#01DEE9" stroke="#484F59" stroke-width="3" d="M119.61 146h-13.393l-.073-17.138c-1.196-.112-3.46-.556-4.031-2.323l-.038-.227-.075-17.128.245-.221c.18-.16 4.487-3.963 10.483-3.963 3.537 0 6.903 1.33 10.01 3.95l.262.22-.08 17.06-.06.141c-.04.093-.94 2.116-3.25 2.415V146z"/>
        <path fill="#D5E962" stroke="#484F59" stroke-width="3" d="M185.61 146h-13.393l-.073-17.138c-1.196-.112-3.46-.556-4.031-2.323l-.038-.227-.075-17.128.245-.221c.18-.16 4.487-3.963 10.483-3.963 3.537 0 6.903 1.33 10.01 3.95l.262.22-.08 17.06-.06.141c-.04.093-.94 2.116-3.25 2.415V146z"/>
        <path fill="#FFDC69" stroke="#484F59" stroke-width="2" d="M160.945 46.008c-.008 1.133-.02 2.4-.038 3.763l-.012.987h-32.842l-.013-.987a803.51 803.51 0 0 1-.04-3.763L127.992 45h32.96l-.007 1.008z"/>
        <path fill="#FFDC69" stroke="#484F59" stroke-width="2" d="M133.377 74.732c-.155-.014-.31-.03-.466-.05l.018.03c.15.009.299.015.448.02zm-6.47-23.128c.208.064.413.132.614.203l.13-.372c-.26-.067-.517-.129-.771-.183l.028.352zm7.712 25.182c-2.64 0-5.35-.631-7.881-2.155-5.682-3.419-9.845-9.502-9.736-18.813.052-4.447 2.199-6.818 6.278-6.818 1.664 0 3.37.38 4.906.92l.616.217.049.652c.042.566.088 1.13.14 1.687l.135 1.467-1.413-.415c-1.271-.374-2.465-.587-3.496-.587-1.358 0-2.314.363-2.912 1.048-.66.758-.91 1.964-.68 3.638.439 3.195 1.351 6.004 2.706 8.353 1.28 2.218 2.922 3.977 4.882 5.235 1.594 1.023 3.432 1.482 5.323 1.52l.566.011.282.493c-.003-.004-.003-.004 0 0a4.494 4.494 0 0 1 .016.028c.081.142.165.284.252.43l.08.13c.087.144.166.273.243.392l.053.083.006.008.034.052a19.912 19.912 0 0 0 .537.787l.005.007.03.043 1.121 1.554-1.915.031-.227.002z"/>
        <path fill="#FFDC69" stroke="#484F59" stroke-linejoin="round" stroke-width="2" d="M156.307 98v6H132v-6h24.307zM137 94h15.267v4H137v-4z"/>
        <path fill="#FFDC69" stroke="#484F59" stroke-width="2" d="M141 93v-6h6.106v6H141z"/>
        <path fill="#FFDC69" stroke="#484F59" stroke-width="2" d="M149.183 85.096c0 1.156-.939 2.096-2.095 2.096h-5.992a2.097 2.097 0 0 1 0-4.192h5.992c1.156 0 2.095.94 2.095 2.096zM152.67 75.691l-.028.036c-.084.108-.168.213-.252.317l-.062.076c-.093.113-.186.223-.28.33l-.013.016c-.944 1.077-1.975 1.93-3.063 2.536a5.034 5.034 0 0 0-2.505 3.578h-4.246a5.034 5.034 0 0 0-2.505-3.578c-1.05-.585-2-1.366-2.857-2.3l-.207-.236c-.841-.96-1.635-2.123-2.357-3.456l-.222-.41c-3.64-7.033-4.741-17.2-5.073-22.6h30.694c-.014.235-.03.478-.047.73l-.003.035c-.018.273-.038.547-.06.82l-.001.025c-.068.868-.148 1.74-.24 2.601l-.055.521c-.615 5.515-1.914 12.54-4.654 17.832l-.241.446a20.25 20.25 0 0 1-1.723 2.681z"/>
        <path fill="#FFDC69" stroke="#484F59" stroke-width="2" d="M156.919 74.682c-.157.02-.314.036-.47.05.15-.004.301-.01.452-.02l.018-.03zm-1.1 1.677a.67.67 0 0 0 .006-.01l-.008.011.001-.001zm.006-.01zm7.125-25.098c-.255.055-.512.116-.772.184l.13.372c.202-.071.406-.139.614-.203l.028-.353zm-8.77 23.96l.014-.019c.104-.143.207-.29.309-.439l.014-.02.022-.034c.083-.122.167-.25.255-.386l.063-.098c.105-.163.193-.305.277-.444l.017-.03.001-.001.022-.037c.075-.125.148-.25.219-.374l.033-.056.005-.008.015-.027.282-.492.566-.011c1.89-.038 3.729-.497 5.323-1.52 1.96-1.259 3.601-3.017 4.881-5.235 1.355-2.349 2.268-5.158 2.707-8.353.23-1.675-.02-2.88-.68-3.638-.598-.685-1.554-1.048-2.912-1.048-1.031 0-2.226.213-3.496.586l-1.413.416.135-1.467c.05-.554.096-1.102.137-1.644l.001-.018v-.008l.002-.019.05-.65.615-.217c1.534-.54 3.242-.92 4.905-.92 4.08 0 6.226 2.37 6.279 6.818.109 9.31-4.055 15.394-9.736 18.813-2.531 1.523-5.241 2.155-7.881 2.155-.078 0-.154 0-.227-.002l-1.905-.031 1.107-1.55a7.512 7.512 0 0 0-.006.009z"/>
    </g>
</svg>
