<svg xmlns="http://www.w3.org/2000/svg" width="280" height="280" viewBox="0 0 280 280">
    <g fill="none" fill-rule="evenodd">
        <rect width="280" height="280" fill="#F6F6F6" rx="18"/>
        <path fill="#484F59" d="M132.138 95.569l-4.141 4.01a3.86 3.86 0 0 0-1.14 2.746 3.865 3.865 0 0 0 1.137 2.757.327.327 0 0 1 .047.05 3.903 3.903 0 0 0 5.465-.038l4.13-4a37.416 37.416 0 0 1-2.787-2.504c-.011-.012-.025-.021-.037-.034a38.21 38.21 0 0 1-2.674-2.987m-5.221 10.609c-.02 0-.037-.04-.054-.06a5.379 5.379 0 0 1-1.54-3.796 5.404 5.404 0 0 1 1.598-3.838l4.76-4.61a.769.769 0 0 1 1.14.085 36.54 36.54 0 0 0 3.08 3.513 36.852 36.852 0 0 0 3.367 2.962c.175.134.282.34.294.563a.759.759 0 0 1-.233.593l-4.748 4.6c-2.112 2.103-5.553 2.1-7.664-.012"/>
        <path fill="#66CDE1" stroke="#484F59" stroke-width="3" d="M133.895 106.288a8.661 8.661 0 0 1-2.43 7.472l-28.774 28.73c-3.354 3.346-8.797 3.346-12.148.006a.734.734 0 0 0-.064-.062c-3.326-3.383-3.303-8.848.056-12.203l28.77-28.726a8.648 8.648 0 0 1 7.23-2.43 5.438 5.438 0 0 0-.498 2.269 5.432 5.432 0 0 0 .988 3.144c.02.03.041.056.061.086a5.46 5.46 0 0 0 .502.601.969.969 0 0 0 .054.061c.186.188.387.352.594.508a5.43 5.43 0 0 0 .77.488c.037.02.076.035.114.051.19.095.39.176.59.245.055.02.11.04.164.058.22.069.446.123.671.162.07.015.139.023.207.031.196.03.39.043.584.05.054.002.102.008.153.009.232.002.461-.022.689-.048a5.475 5.475 0 0 0 .904-.187c.03-.005.054-.017.08-.026.23-.072.451-.161.67-.266.02-.008.043-.013.063-.023"/>
        <g stroke="#484F59" stroke-width="3">
            <path fill="#D5E962" d="M176.309 76.963a49.947 49.947 0 0 0-28.542.242c-2.69.85-4.79 4.012-4.767 6.712.026 3.444.049 5.834.066 7.907a27.572 27.572 0 0 0 8.826 5.966l-.101-12.295.101 12.295a27.229 27.229 0 0 0 10.867 2.142c3.405-.028 6.705-.7 9.784-1.913l-.107-12.701.107 12.701a27.292 27.292 0 0 0 8.73-5.544c-.018-2.305-.042-4.891-.076-8.886-.026-2.704-2.176-5.822-4.888-6.626M161.624 54c-5.36.046-9.666 4.427-9.624 9.786.049 5.36 4.43 9.668 9.788 9.62 5.36-.045 9.669-4.428 9.624-9.784-.045-5.36-4.428-9.667-9.788-9.622"/>
            <path fill="#FFF" fill-rule="nonzero" d="M161.59 99.304c7.373.015 14.302-2.847 19.553-8.08 5.246-5.228 8.13-12.146 8.147-19.529.012-7.39-2.863-14.33-8.113-19.583-5.218-5.22-12.128-8.093-19.493-8.112-7.379-.013-14.307 2.846-19.548 8.07-5.242 5.226-8.125 12.144-8.136 19.524-.016 7.396 2.857 14.343 8.113 19.61 5.215 5.214 12.117 8.083 19.477 8.1zM124 71.576c.015-10.031 3.957-19.491 11.077-26.588 7.118-7.096 16.591-11.005 26.629-10.988 10.013.026 19.456 3.953 26.543 11.042 7.127 7.13 11.057 16.619 11.041 26.673-.023 10.037-3.966 19.494-11.088 26.593-7.128 7.103-16.603 11.016-26.634 10.996-10.006-.023-19.443-3.947-26.528-11.03-7.134-7.149-11.061-16.645-11.04-26.698z"/>
        </g>
    </g>
</svg>
