<?xml version="1.0" encoding="utf-8"?>
<!-- Generator: Adobe Illustrator 22.0.1, SVG Export Plug-In . SVG Version: 6.00 Build 0)  -->
<svg version="1.1" id="Layer_1" xmlns="http://www.w3.org/2000/svg" xmlns:xlink="http://www.w3.org/1999/xlink" x="0px" y="0px"
	 viewBox="0 0 835.2 309.2" style="enable-background:new 0 0 835.2 309.2;" xml:space="preserve">
<style type="text/css">
	.st0{fill:#FFFFFF;}
	.st1{fill:#00BFFF;}
	.st2{clip-path:url(#SVGID_2_);}
	.st3{clip-path:url(#SVGID_4_);fill:#262F56;}
	.st4{clip-path:url(#SVGID_4_);fill:#00BFFF;}
	.st5{clip-path:url(#SVGID_4_);}
	.st6{clip-path:url(#SVGID_6_);fill:#CCCCCC;}
	.st7{clip-path:url(#SVGID_4_);fill:#FFFFFF;}
	.st8{clip-path:url(#SVGID_8_);fill:#CCCCCC;}
</style>
<g>
	<g>
		<path class="st0" d="M373.2,86.1c-0.7,7.8-3.6,13.9-8.8,18.4c-5.3,4.3-12.4,6.4-21.1,6.4c-10.2,0-17.9-3.1-23.2-9.2
			c-5.3-5.9-8-14.5-8-26c0-11.7,2.7-20.5,8.2-26.4c5.6-6.1,13.7-9.2,24.2-9.2c8.6,0,15.4,2.1,20.5,6.4c4.8,4.2,7.5,10,8.2,17.6h-8.4
			c-3.1,0-5.3-1.4-6.6-4.1c-0.9-1.7-2-3.2-3.3-4.5c-2.6-2-6.1-2.9-10.4-2.9c-6,0-10.6,2-13.9,5.9c-3.1,3.9-4.7,9.6-4.7,17.2
			c0,7.3,1.6,12.9,4.7,16.8c3,4,7.5,6.1,13.5,6.1c4.2,0,7.6-1,10.4-3.1c2.5-2,4.2-5.1,5.3-9.4H373.2z"/>
		<path class="st0" d="M375,75.7c0-10.9,2.9-19.6,8.6-26c6.1-6.4,14.1-9.6,24-9.6c9.8,0,17.8,3.2,24,9.6c5.9,6.5,8.8,15.2,8.8,26
			c0,10.8-2.9,19.4-8.8,25.8c-6,6.2-14,9.4-24,9.4c-10.2,0-18.2-3.1-24-9.4C377.8,95.2,375,86.7,375,75.7z M388.8,75.7
			c0,7.6,1.6,13.3,4.9,17.2c3.3,4,7.9,6.1,13.9,6.1c5.9,0,10.5-2,13.9-6.1c3.4-4.2,5.1-9.9,5.1-17.2c0-7.3-1.7-13.1-5.1-17.4
			c-3.4-4-8-6.1-13.9-6.1c-6,0-10.6,2-13.9,6.1C390.5,62.4,388.8,68.2,388.8,75.7z"/>
		<path class="st0" d="M472.4,42.1h10.9l24.4,67.2h-14.6l-4.5-13.9h-26.2l-4.3,13.9h-14.6l22.3-62.7C467,43.6,469.2,42.1,472.4,42.1
			z M475.6,55.6l-9.4,28.5h18.8L475.6,55.6z"/>
		<path class="st0" d="M570.9,86.1c-0.7,7.8-3.6,13.9-8.8,18.4c-5.3,4.3-12.4,6.4-21.1,6.4c-10.2,0-17.9-3.1-23.2-9.2
			c-5.3-5.9-8-14.5-8-26c0-11.7,2.7-20.5,8.2-26.4c5.6-6.1,13.7-9.2,24.2-9.2c8.6,0,15.4,2.1,20.5,6.4c4.8,4.2,7.5,10,8.2,17.6h-8.4
			c-3.1,0-5.3-1.4-6.6-4.1c-0.9-1.7-2-3.2-3.3-4.5c-2.6-2-6.1-2.9-10.4-2.9c-6,0-10.6,2-13.9,5.9c-3.1,3.9-4.7,9.6-4.7,17.2
			c0,7.3,1.6,12.9,4.7,16.8c3,4,7.5,6.1,13.5,6.1c4.2,0,7.6-1,10.4-3.1c2.5-2,4.2-5.1,5.3-9.4H570.9z"/>
		<path class="st0" d="M573.8,109.3V49.2c0-2,0.7-3.6,2.1-5c1.4-1.4,3-2.1,5-2.1h6.8v25h27.7v-25h14.1v67.2h-14.1V79.4h-27.7v29.9
			H573.8z"/>
		<path class="st0" d="M632.2,109.3V49.2c0-2,0.7-3.6,2.1-5c1.4-1.4,3-2.1,5-2.1H681v11.5h-35.2v14.5H672v4.5c0,2-0.7,3.6-2.1,5
			c-1.4,1.4-3,2.1-5,2.1h-19.1v17.2H681v12.5H632.2z"/>
		<path class="st0" d="M683.4,88.4H697c0.5,3.9,2,6.6,4.5,8.2c2.6,1.8,6.2,2.7,10.7,2.7c4,0,7.1-0.7,9.2-2.1
			c2.1-1.4,3.1-3.5,3.1-6.2c0-4.2-5.9-7.5-17.6-10.2l-0.4-0.2l-1.6-0.4c-6.6-1.4-11.1-2.9-13.3-4.5c-2.6-1.4-4.4-3.5-5.5-6.2
			c-1.3-2.3-2-5.3-2-9c0-6.4,2.2-11.4,6.6-15c4.4-3.5,10.9-5.3,19.3-5.3c7.9,0,14.1,1.8,18.4,5.5c4.4,4,6.8,9.3,7,15.8h-7.8
			c-3,0-5.1-1.4-6.4-4.1c-0.7-1.3-1.6-2.4-2.7-3.3c-2.3-1.7-5.5-2.5-9.6-2.5c-3.9,0-6.7,0.7-8.4,2.1c-2,1.4-2.9,3.5-2.9,6.1
			c0,3.5,3.8,6.1,11.3,7.8c2.2,0.7,3.8,1,4.9,1.2c2.3,0.8,4.4,1.4,6.2,1.9c1.8,0.5,3.2,0.8,4.2,1.1c1.8,0.8,3.6,1.6,5.5,2.3
			c2.6,1.6,4.6,3.6,6.1,6.1c1.4,2.7,2.1,5.7,2.1,9c0,7-2.3,12.5-7,16.4c-4.7,3.6-11.3,5.5-19.9,5.5c-8.9,0-15.5-1.9-19.9-5.7
			C686.4,101.4,683.8,95.8,683.4,88.4z"/>
	</g>
	<g>
		<path class="st1" d="M479.1,231.5h-24.5l-29.1-41.9v41.9h-19.8V122.1h29.1c16.1,0.1,27.5,3.2,34.2,9.2c6.7,6,10,15.7,10,29.3
			c0,5.3-1.2,10.1-3.5,14.5c-2.4,4.4-5.8,8-10.2,10.7c-4.4,2.7-9.6,4.4-15.5,4.9L479.1,231.5z M459.1,157c0-2.7-0.4-5-1.3-6.7
			c-0.8-1.7-2.3-3.1-4.4-4.2c-2.1-1.1-5-1.8-8.7-2.3c-3.7-0.5-8.6-0.7-14.8-0.7h-4.5v31.3c7.6-0.1,13.5-0.4,17.7-0.9
			c4.2-0.5,7.5-1.4,9.8-2.6c2.3-1.2,3.9-2.9,4.8-5.1C458.7,163.7,459.1,160.8,459.1,157z"/>
		<path class="st1" d="M566.4,198.9c0,6.3-1.6,12-4.7,17.2c-3.1,5.1-7.5,9.2-13,12.1c-5.5,2.9-11.7,4.4-18.3,4.4
			c-7.7,0-14.4-1.4-20-4.1c-5.6-2.7-9.9-6.5-12.9-11.5c-3-5-4.4-11-4.4-18.1v-76.8h19.9v74.5c0.1,5.3,1.8,9.6,4.9,12.9
			c3.1,3.3,7,4.9,11.6,4.9c4.8-0.1,8.7-1.8,11.6-5c2.9-3.2,4.4-7.5,4.4-12.8v-74.5h21V198.9z"/>
		<path class="st1" d="M653.2,200.1c0,6.7-1.6,12.6-4.9,17.7c-3.2,5.1-7.6,9-13.1,11.9c-5.5,2.8-11.5,4.2-18.1,4.2
			c-5.3,0-10.2-0.9-14.7-2.6c-4.4-1.7-8.3-4.1-11.5-7.2c-3.2-3.1-5.7-6.7-7.4-10.8c-1.7-4.1-2.5-8.5-2.5-13.3h22
			c0,4.4,1.3,7.9,3.9,10.4c2.6,2.5,6,3.8,10.3,3.8c3.8-0.1,6.8-1,9.1-2.7c2.3-1.6,3.9-3.6,4.8-5.8c1-2.2,1.4-4.1,1.4-5.6
			c0-1.9-0.8-3.7-2.2-5.3c-1.4-1.6-3.1-3.1-5.1-4.4c-2-1.3-4.4-2.7-7.2-4.2c-6.8-3.8-11.8-6.6-14.9-8.5c-3.1-1.8-6-4-8.7-6.6
			c-2.7-2.5-4.9-5.4-6.4-8.6c-1.5-3.2-2.3-7-2.5-11.3c0-6.1,1.5-11.5,4.5-16.3c3-4.8,6.9-8.5,11.9-11.2c4.9-2.6,10.4-4,16.3-4
			c6.1,0,11.7,1.3,16.6,3.8c5,2.5,8.9,6.2,11.7,11c2.8,4.8,4.2,10.4,4.2,16.8h-22c-0.5-3.6-1.8-6.3-3.9-8.1
			c-2.1-1.8-4.5-2.7-7.4-2.7c-3.8,0.1-6.6,0.9-8.4,2.4c-1.8,1.4-2.7,4.4-2.7,9c0,1.5,0.6,3,1.7,4.4c1.2,1.4,2.7,2.7,4.5,4
			c1.9,1.3,4.6,3,8.3,5.2c8.1,4.9,14.5,9.1,19,12.5c4.6,3.4,7.9,6.8,10,10.2C652.1,191.7,653.2,195.6,653.2,200.1z"/>
		<g>
			<g>
				<path class="st1" d="M305,101.8v-0.5C305,101.4,305,101.5,305,101.8z M321.7,121.2c-15.6-4.1-16.6-16.8-16.7-19.4v19.4h0V148h0
					v-19.4c0-0.3,0-0.5,0-0.5v0.5c0.1,2.6,1.1,15.4,16.9,19.4h11.3v117.5h30V148h28.1v-26.8H321.7z"/>
			</g>
		</g>
		<g>
			<g>
				<path class="st1" d="M747.3,101.6v0.5C747.3,101.7,747.3,101.6,747.3,101.6z M731.3,121.2h-70.3V148h28.2v117.5h30V148h11.9
					c14.6-4.1,16.1-15.9,16.2-19v-7.5h0V102C747.3,104.5,746.2,116.9,731.3,121.2z"/>
			</g>
		</g>
	</g>
</g>
<g>
	<defs>
		<rect id="SVGID_1_" x="46.2" y="38.2" width="226.8" height="226.8"/>
	</defs>
	<clipPath id="SVGID_2_">
		<use xlink:href="#SVGID_1_"  style="overflow:visible;"/>
	</clipPath>
	<g class="st2">
		<defs>
			<rect id="SVGID_3_" x="46.2" y="38.2" width="226.8" height="226.8"/>
		</defs>
		<clipPath id="SVGID_4_">
			<use xlink:href="#SVGID_3_"  style="overflow:visible;"/>
		</clipPath>
		<path class="st3" d="M101,184.3c11.5,20.5,33.4,34.4,58.6,34.4c29,0,53.7-18.4,63.1-44.2h-18c-0.8,0.8-1.5,1.2-1.5,1.2l-35.4,21.7
			c0,0-8.6,4.5-19.1-11.7c-7.8-12.2-19.8-30.6-25.7-39.9c-1.7-2.7-3-4.4-2.4-7c0.5-2.1,3.7-3.7,3.7-3.7l48.2-27.9
			c0,0,4.1-2.5,7.2-2.2c3.5,0.3,11.3,7.8,11.3,7.8s16.2,14.9,17.6,14.9c2.2,0,7.5,0,13.5,0c0,0,0,0,0,0h25.3c2.8,0,4.5,0,4.5,0
			s0,0,0,0h18.3c1.7,7.7,2.5,15.7,2.5,23.9c0,62.6-50.8,113.4-113.4,113.4C108.3,265,65,231,51,184.3H101z"/>
		<path class="st4" d="M159.6,38.2c51.3,0,94.6,34.1,108.6,80.8h-50c-11.5-20.6-33.4-34.5-58.7-34.5c-28.8,0-53.4,18.2-62.9,43.7
			c7.6,0,14.1,0,15.2-0.1c2.7-0.2,10-5.7,14.3-9.1c14.9-11.6,18.5-13,18.5-13s3-1.7,5.6-1.8c1.8-0.1,3.6,0.2,6.1,2.6
			c2.4,2.3,5.6,6.6,5.6,6.6l-19.4,11.3c0,0-0.7,0.4-0.8,0.9c-0.1,0.4,0.6,1.6,0.7,1.6c1.7,2.3,3.3,3.9,4.9,5
			c5.6,3.7,10.6,0.9,15.3-1.6l8.4-4.9l32.2,47.1c0,0,2.8,5.6-1.6,8.4c-5.6,3.7-9.4-1.2-9.4-1.2l-19.9-26.5c-0.5-0.8-1.3-1.2-1.6-1
			c-0.4,0.3-0.3,1.1,0.2,1.9l19.9,26.5c0,0,2.2,4.3-1.4,7.1c-5.4,4.1-8.7-0.1-8.7-0.1l-20-26.6c-0.5-0.8-1.3-1.2-1.6-1
			c-0.4,0.3-0.3,1.1,0.2,1.9l19.9,26.6c0,0,2.2,3.6-1.9,6.4c-4.6,3.1-7.4-0.8-7.4-0.8l-19.4-25.7c-0.5-0.8-1.3-1.2-1.6-1
			s-0.3,1.1,0.2,1.9l19.4,25.8c0,0,2.4,2.7-0.8,5.7c-4.9,3.9-7.4-0.1-7.4-0.1s-13.4-15-22.3-21.6c-8.9-6.6-22.1-3.8-22.1-3.8H96.9
			c0,0,0,0,0,0H48.7c-1.7-7.7-2.5-15.7-2.5-24C46.2,88.9,96.9,38.2,159.6,38.2"/>
		<g class="st5">
			<g>
				<defs>
					<rect id="SVGID_5_" x="119.4" y="157.6" width="55.8" height="43.7"/>
				</defs>
				<clipPath id="SVGID_6_">
					<use xlink:href="#SVGID_5_"  style="overflow:visible;"/>
				</clipPath>
				<path class="st6" d="M154.8,176.1c-4.1-2.6-6.6,0.9-6.6,0.9l-7.4,10.2c0,0-1.9,3,1.9,5.4c4,2.5,6-0.1,6-0.1l7.4-10.2
					C156.1,182.3,158.8,178.7,154.8,176.1"/>
				<path class="st6" d="M161.3,185.2c-3.1-2.1-5.5,0.9-5.5,0.9l-5.9,8.4c0,0-1.4,2.4,1.6,4.6c2.6,2,5.1-0.2,5.1-0.2l6-8.4
					C162.5,190.5,164.6,187.4,161.3,185.2"/>
				<path class="st6" d="M136.9,161.7c-4.1-2.9-7.1,0.3-7.1,0.3l-9.1,11.3c0,0-1.8,3.2,1.6,6c3.6,3,6.7,0.5,6.7,0.5l9.1-11.4
					C138,168.4,140.9,164.5,136.9,161.7"/>
				<path class="st6" d="M149.2,165.8c-4.8-3.3-8.2,0.3-8.2,0.3l-10.6,12.8c0,0-2,3.7,1.8,6.8c4.2,3.4,7.7,0.6,7.7,0.6l10.6-12.8
					C150.6,173.4,153.9,169,149.2,165.8"/>
			</g>
		</g>
		<path class="st3" d="M154.9,177c-4-3-6.8,0.4-6.8,0.4l-8,10.7c0,0-2.2,2.9,1.6,5.8c3.9,2.9,6.1,0.4,6.1,0.4l8-10.7
			C155.8,183.5,158.8,179.9,154.9,177"/>
		<path class="st3" d="M160.4,186c-3-2.4-5.6,0.4-5.6,0.4l-5.9,8.2c0,0-1.6,2.3,1.2,4.8c2.5,2.2,5.1,0.3,5.1,0.3l5.9-8.2
			C161.1,191.5,163.5,188.6,160.4,186"/>
		<path class="st3" d="M136.1,162.6c-4-2.8-6.9,0.3-6.9,0.3l-8.9,11.1c0,0-1.7,3.2,1.5,5.9c3.5,2.9,6.5,0.5,6.5,0.5l8.9-11.1
			C137.3,169.2,140.1,165.4,136.1,162.6"/>
		<path class="st3" d="M148.3,166.4c-4.7-3.4-8.1,0.3-8.1,0.3l-10.4,13.1c0,0-2,3.7,1.8,6.9c4.2,3.5,7.6,0.6,7.6,0.6l10.5-13.1
			C149.7,174.2,152.9,169.7,148.3,166.4"/>
		<path class="st7" d="M134.5,170.3c0.6-0.1,1-0.7,1-0.7l0.4-0.5c0,0,2.4-2.7-0.7-5.3c-3-2.5-5.4,0.4-5.4,0.4l-0.4,0.5
			c0,0-0.6,0.7-0.6,1.2c0,0.5,0.7,1,0.7,1l3.8,3C133.3,169.9,133.9,170.4,134.5,170.3"/>
		<path class="st7" d="M153.6,184.5c0.6-0.1,1-0.8,1-0.8l0.4-0.5c0,0,2.4-2.8-0.7-5.4c-3.1-2.5-5.5,0.4-5.5,0.4l-0.4,0.5
			c0,0-0.6,0.7-0.6,1.3c0,0.6,0.8,1,0.8,1l3.9,3C152.4,184,152.9,184.6,153.6,184.5"/>
		<path class="st7" d="M159.2,192.1c0.5-0.1,0.8-0.6,0.8-0.6l0.3-0.4c0,0,2-2.2-0.6-4.3c-2.5-2-4.5,0.3-4.5,0.3l-0.3,0.4
			c0,0-0.5,0.6-0.5,1c0,0.4,0.6,0.8,0.6,0.8l3.2,2.4C158.2,191.8,158.7,192.2,159.2,192.1"/>
		<path class="st7" d="M146.8,175.1c0.7-0.1,1.2-0.9,1.2-0.9l0.5-0.6c0,0,2.8-3.2-0.8-6.2c-3.5-2.9-6.4,0.5-6.4,0.5l-0.5,0.6
			c0,0-0.7,0.8-0.7,1.5c0,0.6,0.9,1.1,0.9,1.1l4.5,3.5C145.4,174.6,146.1,175.1,146.8,175.1"/>
		<path class="st7" d="M152.9,119.1l-9.1,5.4c4.4,7,8.7,6.2,12.4,4.3c0,0,0.6-0.3,0.8-0.8c0.2-0.5-0.2-1.2-0.2-1.2L152.9,119.1z"/>
		<g class="st5">
			<g>
				<defs>
					<rect id="SVGID_7_" x="141.8" y="125.6" width="31.2" height="10.5"/>
				</defs>
				<clipPath id="SVGID_8_">
					<use xlink:href="#SVGID_7_"  style="overflow:visible;"/>
				</clipPath>
				<path class="st8" d="M141.8,125.6c0,0.5,0.2,1,0.5,1.6c1.6,3.2,7.6,13.1,20.2,7l10.5-5.7l-2-2.9c0,0-2.4,1.4-5.4,3.1
					c-2.7,1.6-6.3,3.7-8.8,4.5c-1.8,0.6-3.5,0.8-4.9,0.6c-1.7-0.2-3.3-0.8-4.8-1.9c-0.9-0.6-1.7-1.3-2.5-2.1
					c-0.8-0.9-1.1-1.2-1.5-1.7C141.9,126.5,141.8,125.5,141.8,125.6"/>
			</g>
		</g>
	</g>
</g>
</svg>
