<svg xmlns="http://www.w3.org/2000/svg" width="32" height="32" viewBox="0 0 32 32">
    <g fill="none" fill-rule="evenodd">
        <path d="M0 0h32v32H0z"/>
        <g fill="#00ACFF" fill-rule="nonzero">
            <path d="M7.714 24.351A5.595 5.595 0 0 0 11.696 26c1.505 0 2.92-.585 3.983-1.649l3.313-3.313a.522.522 0 0 0 0-.734l-2.073-2.073-1.828 1.829.575.575-1.853 1.853a2.998 2.998 0 0 1-4.239 0l-.062-.062a2.998 2.998 0 0 1 0-4.24l1.853-1.852.575.575 1.829-1.828-2.073-2.073a.522.522 0 0 0-.735 0L7.65 16.321A5.595 5.595 0 0 0 6 20.304c0 1.504.585 2.919 1.649 3.982l.065.065zM24.295 7.64A5.567 5.567 0 0 0 20.333 6a5.567 5.567 0 0 0-3.963 1.64l-3.362 3.366c-.201.2-.201.527 0 .73l2.061 2.062 1.889-1.888-.575-.575 1.843-1.843a2.982 2.982 0 0 1 4.218 0l.062.061a2.982 2.982 0 0 1 0 4.218l-1.844 1.844-.572-.573-1.888 1.889 2.061 2.061c.201.201.528.201.731 0l3.366-3.365A5.567 5.567 0 0 0 26 11.665a5.567 5.567 0 0 0-1.64-3.963l-.065-.062z"/>
            <path d="M19.925 12.075a1.229 1.229 0 0 0-1.742 0l-.547.545-1.88 1.88-1.325 1.325-1.81 1.81-.546.546a1.235 1.235 0 0 0 .871 2.105c.316 0 .632-.121.87-.36l.546-.546 1.81-1.81 1.326-1.326 1.88-1.88.545-.545a1.232 1.232 0 0 0 .002-1.744z"/>
        </g>
    </g>
</svg>
