<svg xmlns="http://www.w3.org/2000/svg" width="40" height="40" viewBox="0 0 40 40">
    <g fill="none" fill-rule="evenodd">
        <g fill="#00ACFF" fill-rule="nonzero">
            <path d="M26.343 27.583l-.732-1.054 2.322-5.47c1.479-3.483-.133-7.552-3.6-9.388l.46-1.081c.142-.336-.03-.73-.385-.881-.355-.15-.758 0-.9.335l-.46 1.082c-3.729-1.22-7.775.449-9.253 3.93l-2.322 5.471-1.267.206a.652.652 0 0 0-.5.384L8.672 23.55c-.142.336.03.73.385.88l15.424 6.548c.355.15.758 0 .9-.335l1.033-2.432a.652.652 0 0 0-.072-.627zM14.682 27.308c.218 1.004.949 1.92 2.025 2.376 1.077.457 2.243.347 3.116-.194l-5.14-2.182z"/>
        </g>
        <path d="M0 0h40v40H0z"/>
    </g>
</svg>
