<svg xmlns="http://www.w3.org/2000/svg" width="16" height="16" viewBox="0 0 16 16">
    <g fill="#CCC" fill-rule="evenodd">
        <path d="M5.837 8.414c1.568 0 2.838-1.243 2.838-2.775 0-1.532-1.27-2.774-2.838-2.774C4.27 2.865 3 4.107 3 5.639S4.27 8.414 5.837 8.414zM7.041 8.603H4.633C2.63 8.603 1 10.197 1 12.156v2.879l.007.045.203.062c1.912.584 3.573.779 4.94.779 2.67 0 4.219-.745 4.314-.792l.19-.094.02-2.88c0-1.958-1.63-3.552-3.633-3.552zM12.273 5.89h-2.036a2.885 2.885 0 0 1-.92 2.03c1.517.442 2.628 1.818 2.628 3.443v.756c2.01-.072 3.169-.629 3.245-.666l.162-.08.017-2.455c0-1.67-1.389-3.028-3.096-3.028zM8.83 2.329a2.924 2.924 0 0 1 1.395 2.176c.31.142.656.224 1.022.224 1.335 0 2.418-1.058 2.418-2.364C13.665 1.059 12.582 0 11.247 0 9.924 0 8.85 1.04 8.83 2.329z"/>
    </g>
</svg>
